<svg width="338" height="303" viewBox="0 0 338 303" fill="none" xmlns="http://www.w3.org/2000/svg">
<g clip-path="url(#clip0_1718_1704)">
<path d="M42.1376 145.725C40.199 148.348 38.9162 151.397 38.3964 154.617C38.2506 155.734 39.2062 156.706 40.1293 155.994C42.9463 152.584 45.5792 149.027 48.0167 145.337L48.8265 145.855C47.1508 149.732 46.2803 153.908 46.2676 158.131C46.2676 158.714 46.4943 159.2 47.1097 159.2C47.3509 159.168 47.5825 159.085 47.7891 158.957C47.9957 158.828 48.1727 158.657 48.3082 158.455C48.7074 157.973 49.0197 157.425 49.2314 156.836C50.3813 154.358 52.6973 148.463 53.1508 147.232C54.9255 147.331 56.6867 146.872 58.1877 145.92C58.612 147.042 59.3707 148.008 60.3613 148.686C61.3518 149.363 62.5265 149.721 63.7267 149.71C64.0344 149.71 64.5851 149.71 64.6822 149.094C64.828 148.301 62.9007 145.725 61.1677 143.604C61.8591 142.887 62.4087 142.047 62.7873 141.126C65.0223 140.251 66.2856 139.15 66.5609 137.887C67.4679 133.465 56.973 125.238 51.8551 128.169C49.555 129.932 47.6281 132.134 46.1866 134.647C45.8407 135.361 45.5746 136.111 45.393 136.882C44.6044 136.964 43.8617 137.293 43.2713 137.822C40.8747 139.72 38.6176 141.787 36.5177 144.009C35.2382 145.401 34.315 147.539 36.1776 147.798C36.9182 147.813 37.6345 147.533 38.1696 147.021C39.7892 145.92 44.3888 142.065 45.3768 141.223V141.417C44.188 142.768 43.105 144.208 42.1376 145.725ZM36.1452 146.47C36.3983 145.733 36.8393 145.074 37.4246 144.559C39.7082 142.13 42.6883 139.701 43.5143 138.939C43.9627 138.468 44.5183 138.113 45.1338 137.903C45.0285 138.693 45.0285 139.494 45.1338 140.284C44.6318 140.705 44.1297 141.191 43.6276 141.628C41.4351 143.484 39.1309 145.204 36.7282 146.778C36.4367 146.956 36.048 146.956 36.1937 146.47H36.1452ZM58.544 142.389C58.8193 142.195 59.2404 142.697 59.4348 142.891C61.1157 144.673 62.5584 146.666 63.7267 148.819C63.3475 148.899 62.9559 148.899 62.5768 148.819C61.7194 148.581 60.9258 148.155 60.2534 147.573C59.5811 146.99 59.047 146.265 58.6898 145.45C58.3957 144.895 58.2297 144.28 58.2039 143.652C58.1651 143.204 58.2855 142.757 58.544 142.389ZM50.1546 130.89C52.6838 131.687 55.0232 132.994 57.0286 134.729C59.034 136.464 60.6631 138.592 61.8156 140.98C61.5772 141.722 61.1535 142.391 60.5847 142.924C59.8883 142.114 58.9651 141.126 58.1391 141.693C57.3131 142.26 57.3779 144.122 57.8314 145.272C56.5124 146.117 54.9765 146.562 53.4099 146.551C53.5706 145.967 53.6897 145.371 53.7662 144.77C53.9282 143.636 53.2318 143.021 52.1466 142.988C51.4847 142.979 50.8372 143.182 50.2983 143.566C49.7594 143.951 49.3572 144.497 49.1504 145.126L48.4864 144.689C48.8422 144.309 49.0494 143.813 49.0702 143.293C49.091 142.773 48.924 142.262 48.5998 141.855C48.2941 141.528 47.9119 141.283 47.4877 141.142C47.0635 141 46.6107 140.967 46.1704 141.045C45.9113 139.182 45.393 135.279 50.1546 130.89ZM47.0612 158.099C47.0857 156.141 47.3247 154.191 47.7738 152.285C48.1301 150.665 48.5998 149.45 48.9723 148.252C49.4419 146.73 50.2355 144.171 51.5798 143.928C51.7467 143.91 51.915 143.91 52.0819 143.928C53.0212 143.928 53.005 144.365 52.7459 145.272C52.1143 147.539 47.3851 160.496 47.0612 158.099ZM41.6194 148.382C42.4777 146.859 43.5143 145.418 44.5022 144.009C45.0367 143.264 45.7655 142 46.5915 141.903C47.4175 141.806 48.4702 142.616 48.2111 143.409C45.7455 147.503 42.962 151.397 39.8864 155.054C39.4491 155.54 39.3034 155.524 39.3357 154.957C39.7298 152.649 40.5013 150.422 41.6194 148.365V148.382ZM126.696 114.403C125.974 112.885 124.758 111.657 123.246 110.921C122.163 110.503 120.98 110.413 119.845 110.661C91.0491 115.634 74.4159 119.634 74.011 119.796C73.4362 120.092 72.9389 120.519 72.5592 121.042C72.1794 121.565 71.9278 122.17 71.8246 122.808C71.222 124.952 71.1488 127.209 71.6115 129.387C72.0742 131.565 73.0588 133.598 74.4807 135.311C74.9678 136.148 75.7554 136.768 76.6833 137.044C77.4445 137.044 86.1417 134.113 91.5997 133.433C95.179 132.979 122.761 126.436 123.846 126.096C126.89 125.108 128.607 123.408 127.7 117.998C127.561 116.753 127.222 115.539 126.696 114.403ZM73.4442 132.153C72.1642 129.42 71.8945 126.321 72.683 123.408C72.9745 122.371 73.4442 121.14 74.4483 120.751C74.8696 120.619 75.3169 120.591 75.7514 120.67C76.186 120.749 76.5948 120.933 76.9425 121.205C78.355 122.568 79.2241 124.399 79.388 126.355C80.4732 132.477 78.9993 134.777 78.0114 135.603C77.8279 135.79 77.604 135.932 77.357 136.019C77.11 136.106 76.8463 136.136 76.5862 136.105C75.3715 135.7 73.9786 133.465 73.4442 132.153ZM98.4505 115.52L109.529 113.512C115.861 117.561 113.885 125.74 113.302 127.683L101.965 130.291C102.791 127.942 103.828 120.67 98.4505 115.52ZM80.295 126.355C79.8253 123.78 79.0317 121.075 76.8777 120.023C80.1169 119.261 83.356 118.549 86.2875 117.917C87.7741 120.09 88.7972 122.546 89.2932 125.132C89.7892 127.718 89.7474 130.378 89.1703 132.947C86.8057 133.465 81.5583 134.874 79.631 135.425C80.3112 134.243 81.283 131.522 80.295 126.355ZM87.2268 117.804C90.466 117.124 93.8023 116.46 97.3978 115.796C99.3083 117.675 100.656 120.05 101.288 122.654C101.921 125.259 101.813 127.988 100.977 130.534L90.0935 132.769C90.6484 130.21 90.6805 127.565 90.1879 124.994C89.6953 122.422 88.6881 119.976 87.2268 117.804ZM114.274 127.521C115.051 124.525 116.509 117.804 110.711 113.35C113.027 112.896 119.554 111.601 121.06 111.552C121.658 111.534 122.254 111.638 122.811 111.858C123.368 112.078 123.874 112.409 124.299 112.832C126.154 114.948 127.122 117.697 127.004 120.508C127.004 123.586 125.951 124.736 122.145 125.643L114.274 127.521ZM310.324 192.855C309.276 192.006 307.993 191.498 306.648 191.398C303.929 191.34 301.307 190.377 299.198 188.661C301.514 185.923 300.688 184.482 300.202 183.964C299.792 183.566 299.253 183.328 298.683 183.292C298.113 183.257 297.549 183.426 297.092 183.769C295.667 184.903 296.461 187.349 297.627 188.628C296.392 189.288 294.947 189.435 293.605 189.038C292.262 188.641 291.13 187.732 290.452 186.507C290.398 186.418 290.312 186.355 290.212 186.331C290.112 186.307 290.006 186.323 289.918 186.377C289.83 186.431 289.767 186.517 289.742 186.617C289.718 186.718 289.734 186.823 289.788 186.911C290.179 187.646 290.713 188.294 291.36 188.817C292.007 189.34 292.752 189.727 293.552 189.955C294.352 190.184 295.19 190.248 296.015 190.145C296.84 190.043 297.636 189.774 298.356 189.357C302.712 193.455 308.203 190.977 310.584 194.621C311.532 196.464 311.758 198.596 311.215 200.597C311.207 200.651 311.217 200.706 311.244 200.753C311.271 200.8 311.313 200.837 311.364 200.858C311.414 200.879 311.47 200.881 311.523 200.866C311.575 200.851 311.621 200.819 311.653 200.775C312.213 199.466 312.385 198.024 312.15 196.62C311.914 195.216 311.281 193.91 310.324 192.855ZM299.068 184.207C299.797 184.579 300.186 186.409 298.485 187.997C297.643 187.106 296.866 185.875 297.595 184.757C297.73 184.501 297.955 184.303 298.227 184.201C298.498 184.1 298.798 184.102 299.068 184.207ZM107.455 244.131C106.732 244.105 106.024 243.916 105.382 243.581C105.116 242.739 104.78 241.921 104.378 241.135C104.015 240.425 103.515 239.795 102.906 239.281C102.297 238.766 101.592 238.378 100.831 238.139C100.882 237.364 100.839 236.587 100.702 235.823C99.3297 234.905 97.7878 234.272 96.1669 233.96C96.0423 233.953 95.919 233.989 95.8184 234.063C95.7178 234.137 95.6463 234.244 95.6163 234.365C95.4543 235.207 95.1628 236.73 94.9684 238.285C92.0694 237.621 88.814 239.613 87.8423 239.985C87.5346 239.645 86.2227 238.009 85.9959 237.783C85.7692 237.556 85.089 237.475 84.7003 238.204C84.7003 238.204 82.8054 241.88 82.8054 241.961V245.605C82.8082 245.652 82.8231 245.698 82.8486 245.738C82.8741 245.777 82.9094 245.81 82.9511 245.832L85.4129 246.787C85.4129 247.484 85.4939 249.006 85.4939 249.46C85.1376 249.687 84.0848 250.205 83.8743 250.723L83.1779 251.695C83.1423 251.738 83.1229 251.793 83.1229 251.849C83.1229 251.905 83.1423 251.959 83.1779 252.003C83.6152 252.407 86.1417 254.351 86.8543 254.788C86.8962 254.827 86.9512 254.848 87.0082 254.848C87.0652 254.848 87.1202 254.827 87.1621 254.788L88.9598 252.893L93.0573 253.687C93.9084 254.712 94.6876 255.794 95.3895 256.926C95.4867 257.12 95.3895 257.056 99.4385 257.056C99.4977 257.056 99.555 257.035 99.5998 256.996C99.6445 256.958 99.6735 256.904 99.6814 256.845C100.012 255.96 100.447 255.117 100.977 254.335C100.992 254.299 101 254.26 101 254.221C101 254.182 100.992 254.144 100.977 254.108L100.767 252.942L105.026 249.881L106.986 250.14C107.043 250.146 107.101 250.131 107.148 250.099C107.195 250.066 107.23 250.017 107.245 249.962L108.33 246.253C108.346 246.2 108.346 246.144 108.33 246.091C107.601 244.131 107.682 244.131 107.455 244.131ZM95.3086 239.467C95.5191 239.564 95.6487 239.386 95.7134 239.159C95.7782 238.932 96.0536 237.766 96.5556 235.143C97.6885 235.404 98.7789 235.824 99.7948 236.39V238.625C99.7931 238.736 99.8313 238.845 99.9026 238.931C99.9738 239.017 100.073 239.075 100.183 239.094C103.666 239.823 104.508 244.326 104.896 244.65C105.401 244.938 105.947 245.146 106.516 245.265L106.322 248.164L104.135 247.516C104.102 247.493 104.063 247.48 104.022 247.48C103.981 247.48 103.942 247.493 103.909 247.516C99.0498 251.662 99.3089 251.355 99.3413 251.533L99.5357 253.363H95.1628L95.0656 251.743C95.0623 251.687 95.0395 251.634 95.0011 251.592C94.9627 251.551 94.911 251.524 94.8551 251.517C87.9718 250.707 88.3767 250.691 88.3767 250.853L87.2592 252.343L85.1862 250.869C85.4342 250.69 85.7002 250.538 85.9798 250.415C86.1458 250.371 86.2933 250.275 86.4011 250.141C86.5088 250.007 86.5711 249.842 86.579 249.67V244.326C86.579 244.148 86.6762 244.326 84.0524 242.269C84.5364 241.079 85.116 239.931 85.7854 238.835C86.4008 239.564 87.5346 241.087 88.1338 241.087C88.733 241.087 92.9926 238.414 95.3409 239.467H95.3086Z" fill="#0064DD"/>
<path d="M94.2079 249.654C94.973 249.857 95.7708 249.905 96.5548 249.797C97.3389 249.688 98.0936 249.425 98.7751 249.023C99.648 248.351 100.253 247.39 100.482 246.313C100.71 245.235 100.547 244.112 100.022 243.144C99.7388 242.708 99.3762 242.329 98.9532 242.026C97.3587 241.129 95.5265 240.744 93.7058 240.925C93.0435 240.932 92.3929 241.1 91.8092 241.413C91.2256 241.726 90.7261 242.175 90.3532 242.723C89.9376 243.46 89.7059 244.286 89.6777 245.132C89.6495 245.978 89.8257 246.818 90.1913 247.581C91.2378 248.732 92.6635 249.468 94.2079 249.654ZM90.9687 245.411C91.5193 244.569 92.9446 244.536 93.9487 244.617C97.9329 244.974 98.7265 245.994 98.8075 246.577C98.8218 246.92 98.7436 247.26 98.5812 247.562C98.4188 247.864 98.1781 248.117 97.8843 248.294C96.6958 248.875 95.3345 248.996 94.0621 248.634C92.8194 248.513 91.6655 247.936 90.8229 247.014C90.7259 246.749 90.6958 246.464 90.7354 246.184C90.7749 245.905 90.8829 245.639 91.0497 245.411H90.9687ZM67.6791 236.277C67.2053 235.857 66.6443 235.548 66.0365 235.371C65.4287 235.195 64.7894 235.156 64.1646 235.256C62.9236 235.423 61.7995 236.076 61.0388 237.07C60.5288 238.069 60.38 239.213 60.6177 240.309C60.6535 241.271 60.8879 242.215 61.3059 243.082C61.724 243.948 62.3168 244.719 63.0471 245.346C63.4475 245.72 63.9305 245.994 64.4567 246.146C64.983 246.298 65.5377 246.324 66.0757 246.221C66.8369 246.026 69.3149 244.893 68.829 239.224C68.8459 238.681 68.7528 238.139 68.5552 237.633C68.3576 237.126 68.0596 236.665 67.6791 236.277ZM66.9665 243.937C66.2538 244.261 64.6019 243.435 64.1484 240.795C63.9653 240.041 63.9607 239.254 64.135 238.498C64.3093 237.742 64.6578 237.037 65.1525 236.439C65.8004 235.807 66.7721 236.439 67.2256 237.151C68.586 238.868 68.2945 243.37 66.9665 243.937ZM116.445 222.283C115.034 221.431 113.393 221.041 111.75 221.165C110.107 221.29 108.544 221.924 107.278 222.98C106.429 223.743 105.809 224.727 105.488 225.823C105.168 226.919 105.16 228.082 105.464 229.183C106.176 230.964 107.533 232.412 109.265 233.238C110.997 234.063 112.977 234.205 114.809 233.637C115.56 233.501 116.276 233.213 116.911 232.789C117.546 232.366 118.088 231.816 118.502 231.175C119.117 230.025 120.17 224.778 116.445 222.283ZM117.449 228.762C116.634 229.488 115.66 230.012 114.605 230.294C113.55 230.575 112.444 230.605 111.375 230.381C109.966 230.074 107.035 228.6 106.662 226.64C106.436 225.49 107.148 224.324 108.768 223.223C111.473 221.36 116.137 221.878 117.562 224.956C117.918 225.52 118.096 226.177 118.076 226.844C118.056 227.51 117.838 228.155 117.449 228.697V228.762Z" fill="#0064DD"/>
<path d="M112.978 223.951C110.646 223.449 109.318 224.664 109.253 225.911C109.188 227.158 110.872 228.146 112.395 228.146C115.553 228.146 116.282 224.696 112.978 223.951ZM113.755 226.964C112.783 227.725 110.176 227.126 110.127 226.073C110.127 225.441 110.694 224.745 111.876 224.745C112.638 224.745 113.998 225.069 114.176 225.83C114.198 226.039 114.172 226.25 114.099 226.446C114.026 226.643 113.908 226.82 113.755 226.964ZM109.156 155.054C109.251 155.008 109.327 154.929 109.37 154.832C109.413 154.735 109.421 154.626 109.392 154.524C109.363 154.422 109.299 154.333 109.212 154.273C109.124 154.213 109.018 154.186 108.913 154.196C103.406 155.816 102.434 163.168 106.597 164.723C107.131 168.529 111.812 170.311 115.861 168.837C117.869 172.384 124.412 172.627 124.477 167.736C124.477 167.637 124.438 167.542 124.368 167.472C124.298 167.402 124.203 167.363 124.104 167.363C124.006 167.363 123.911 167.402 123.841 167.472C123.771 167.542 123.732 167.637 123.732 167.736C123.749 168.114 123.683 168.492 123.537 168.842C123.391 169.192 123.17 169.505 122.89 169.76C122.411 170.12 121.861 170.372 121.276 170.5C120.692 170.628 120.086 170.63 119.501 170.504C118.916 170.378 118.365 170.128 117.885 169.77C117.405 169.413 117.007 168.957 116.719 168.432C119.035 167.217 119.148 165.193 118.339 164.432C118.116 164.275 117.86 164.169 117.592 164.124C117.323 164.078 117.047 164.093 116.785 164.167C116.522 164.242 116.28 164.374 116.075 164.554C115.87 164.735 115.709 164.958 115.602 165.209C115.384 165.625 115.255 166.081 115.221 166.549C115.188 167.017 115.251 167.487 115.407 167.93C112.508 168.967 108.443 168.092 107.617 164.918C108.457 164.998 109.3 164.812 110.028 164.384C110.755 163.956 111.328 163.31 111.666 162.537C112.638 160.026 109.69 159.298 107.892 160.917C107.129 161.633 106.646 162.598 106.532 163.638C103.584 162.197 104.669 156.463 109.156 155.054ZM107.536 164.011C107.536 161.986 109.382 160.771 110.532 160.966C112.314 162.213 109.172 164.448 107.536 164.059V164.011ZM117.577 164.95C117.772 164.95 117.918 165.274 117.999 165.727C117.898 166.151 117.699 166.544 117.417 166.877C117.136 167.209 116.78 167.47 116.379 167.639C115.715 166.748 116.865 164.853 117.577 164.999V164.95ZM163.169 202.589C162.262 201.715 159.816 200.419 153.759 201.52C153.143 201.573 152.555 201.8 152.064 202.176C151.573 202.552 151.2 203.061 150.989 203.642C150.866 205.587 150.931 207.54 151.184 209.472C151.734 212.112 154.974 212.598 157.273 212.598C158.374 212.723 159.488 212.602 160.536 212.244C161.583 211.885 162.538 211.298 163.331 210.525C163.611 210.227 163.826 209.874 163.962 209.489C163.962 209.132 164.059 206.525 163.962 204.371C163.981 204.032 163.918 203.694 163.78 203.384C163.642 203.074 163.433 202.802 163.169 202.589ZM162.699 203.512C162.843 203.669 162.939 203.863 162.977 204.073C163.014 204.282 162.991 204.498 162.91 204.695C162.505 205.364 161.872 205.864 161.128 206.104C159.006 206.897 154.812 207.14 152.803 205.731C152.506 205.48 152.269 205.164 152.112 204.808C151.955 204.451 151.881 204.064 151.896 203.674C152.048 203.026 152.728 202.589 153.937 202.362C159.039 201.374 161.792 202.314 162.699 203.512ZM155.913 211.497C154.423 211.351 152.544 210.881 152.123 209.44C151.968 208.368 151.897 207.284 151.913 206.201C153.222 207.281 154.902 207.804 156.593 207.658C160.869 207.561 162.391 206.703 163.072 206.039C163.072 206.897 163.072 209.067 162.926 209.278C161.986 211.319 158.699 211.74 155.913 211.497ZM129.967 134.437C129.06 133.579 126.615 132.267 120.541 133.368C119.924 133.426 119.337 133.66 118.849 134.042C118.361 134.424 117.993 134.937 117.788 135.522C117.639 137.454 117.677 139.396 117.901 141.32C118.436 143.976 121.675 144.462 123.991 144.462C125.104 144.596 126.233 144.48 127.295 144.121C128.357 143.762 129.325 143.171 130.129 142.389C130.988 141.336 130.826 141.677 130.826 136.235C130.835 135.889 130.762 135.545 130.613 135.232C130.464 134.92 130.242 134.647 129.967 134.437ZM129.498 135.36C129.643 135.519 129.74 135.717 129.777 135.929C129.815 136.141 129.791 136.36 129.708 136.559C129.304 137.228 128.671 137.728 127.927 137.968C125.805 138.761 121.61 139.004 119.602 137.595C119.307 137.342 119.072 137.025 118.915 136.67C118.758 136.314 118.683 135.927 118.695 135.538C118.841 134.891 119.521 134.453 120.752 134.21C125.837 133.239 128.607 134.162 129.498 135.36ZM122.711 143.361C121.221 143.215 119.343 142.746 118.922 141.304C118.767 140.232 118.696 139.148 118.711 138.065C120.023 139.139 121.703 139.657 123.392 139.506C127.667 139.506 129.19 138.567 129.87 137.887C129.87 138.761 129.87 140.932 129.724 141.126C128.785 143.183 125.481 143.62 122.711 143.361ZM171.526 221.457C170.554 222.202 170.198 223.174 168.724 222.996C169.019 222.429 169.099 221.774 168.951 221.152C168.802 220.531 168.434 219.983 167.914 219.611C167.44 219.342 166.901 219.207 166.356 219.221C165.811 219.235 165.28 219.398 164.821 219.692C163.444 221.312 165.177 222.834 167.153 223.563C166.024 224.593 164.646 225.312 163.156 225.649C161.666 225.987 160.113 225.932 158.65 225.49C159.525 223.498 159.525 220.793 157.759 219.53C154.876 217.408 151.103 223.19 157.338 225.927C156.914 226.573 156.359 227.122 155.708 227.539C155.058 227.956 154.327 228.232 153.564 228.348C152.8 228.464 152.02 228.418 151.275 228.213C150.531 228.008 149.837 227.649 149.24 227.158C149.169 227.094 149.075 227.06 148.978 227.063C148.882 227.066 148.791 227.107 148.724 227.176C148.657 227.245 148.619 227.338 148.619 227.434C148.618 227.53 148.655 227.623 148.722 227.693C149.401 228.333 150.216 228.81 151.107 229.09C151.997 229.369 152.939 229.443 153.862 229.306C154.785 229.169 155.664 228.824 156.435 228.298C157.205 227.771 157.846 227.077 158.31 226.267C160.025 226.843 161.868 226.924 163.627 226.5C165.386 226.076 166.99 225.165 168.254 223.87C169.012 224.062 169.812 223.987 170.522 223.66C170.927 223.449 173.226 220.567 175.38 222.251C175.443 222.307 175.525 222.336 175.608 222.331C175.692 222.326 175.77 222.289 175.826 222.227C175.882 222.164 175.91 222.082 175.906 221.999C175.901 221.915 175.864 221.837 175.801 221.781C175.262 221.196 174.521 220.837 173.727 220.777C172.934 220.716 172.147 220.96 171.526 221.457ZM165.274 220.761C165.274 220.275 165.89 220.178 166.375 220.178C166.673 220.131 166.978 220.176 167.25 220.306C167.522 220.436 167.748 220.645 167.898 220.907C168.048 221.198 168.119 221.524 168.102 221.851C168.085 222.178 167.981 222.495 167.801 222.769C166.994 222.494 166.242 222.077 165.582 221.538C165.394 221.334 165.285 221.07 165.274 220.793V220.761ZM154.99 221.198C156.82 217.959 158.893 221.814 158.229 223.887C158.129 224.335 157.977 224.77 157.775 225.182C155.897 224.405 154.423 222.818 154.99 221.231V221.198ZM262.141 234.09C262.028 233.928 262.579 233.977 254.497 233.977C254.205 233.977 254.497 233.766 252.019 240.115C249.228 240.433 246.413 240.482 243.613 240.261C211.691 238.236 212.647 233.313 210.59 215.449C210.402 213.026 210.056 210.619 209.554 208.242C207.448 199.722 197.245 197.423 192.192 205.553C188.952 210.703 189.73 217.765 190.2 223.935C190.47 230.305 191.806 236.584 194.151 242.512C199.82 255.355 208.728 258.513 222.235 259.598C229.129 260.197 236.063 260.153 242.949 259.469C243.289 259.469 248.488 259.339 250.48 259.307C250.885 259.307 250.318 259.453 261.17 236.455C262.611 258.643 262.789 259.129 262.174 261.38C261.753 262.838 254.481 279.584 252.23 284.572C251.857 279.827 251.08 265.542 251.063 261.558C251.064 261.525 251.057 261.492 251.044 261.461C251.03 261.431 251.011 261.403 250.987 261.38C250.962 261.358 250.934 261.34 250.902 261.329C250.871 261.318 250.838 261.313 250.804 261.315L243.84 261.931C243.779 261.935 243.721 261.962 243.679 262.007C243.637 262.052 243.613 262.112 243.613 262.174C243.613 266.514 244.893 283.925 245.346 287.974C245.354 288.032 245.383 288.086 245.428 288.125C245.473 288.164 245.53 288.185 245.589 288.184L252.278 287.569C252.329 287.563 252.377 287.541 252.415 287.506C252.453 287.471 252.479 287.425 252.489 287.374C252.683 286.743 262.206 264.328 262.789 262.919C263.386 261.337 263.662 259.652 263.599 257.963C263.567 257.299 262.206 234.22 262.141 234.09ZM251.598 241.297C250.61 243.743 246.205 254.254 244.358 258.254H244.115C242.787 252.647 243.287 246.762 245.541 241.459C246.739 241.524 250.205 241.411 251.598 241.297ZM243.241 258.368C239.435 258.724 235.532 258.902 231.596 258.886C230.925 255.761 230.909 252.532 231.551 249.401C232.192 246.27 233.476 243.307 235.321 240.698C236.941 240.86 242.464 241.313 244.65 241.443C242.365 246.783 241.848 252.713 243.176 258.368H243.241ZM212.469 230.689C213.505 233.556 217.149 236.244 219.19 237.248C216.664 239.855 214.839 243.061 213.888 246.564C212.936 250.068 212.888 253.755 213.748 257.282C203.496 254.95 199.998 250.399 197.115 245.54C200.256 238.927 205.663 233.657 212.355 230.689H212.469ZM209.408 213.991C209.408 214.542 210.072 219.789 210.169 220.664C201.569 218.477 193.584 225.328 191.722 227.369C191.528 225.458 191.09 219.028 191.026 216.987C196.759 213.521 202.751 211.983 209.294 213.991H209.408ZM210.299 221.733C210.752 224.466 211.368 227.171 212.145 229.831C205.354 232.705 199.828 237.932 196.581 244.553C194.045 239.64 192.457 234.294 191.9 228.794C192.564 227.936 200.403 219.417 210.185 221.733H210.299ZM191.981 208.776C195.334 198.848 206.071 199.901 208.42 207.739C208.824 209.462 209.116 211.21 209.294 212.971C206.229 212.096 203.011 211.89 199.859 212.368C196.707 212.846 193.694 213.996 191.026 215.74C190.918 213.399 191.203 211.056 191.868 208.808L191.981 208.776ZM219.951 237.653C224.62 239.039 229.399 240.02 234.236 240.585C232.361 243.199 231.075 246.189 230.465 249.348C229.856 252.508 229.938 255.761 230.705 258.886C225.346 258.892 219.997 258.426 214.72 257.493C213.888 254.011 213.93 250.377 214.843 246.916C215.756 243.454 217.511 240.272 219.951 237.653ZM207.675 163.152C207.005 163.691 206.514 164.419 206.266 165.242C205.531 165.169 204.791 165.321 204.144 165.679C203.145 166.283 202.358 167.183 201.893 168.254C196.127 162.683 188.288 164.529 184.806 171.04C180.757 178.571 185.843 189.875 195.058 189.875C199.172 189.875 203.901 187.754 205.667 183.689C206.733 180.889 206.813 177.81 205.893 174.959C205.878 174.887 205.844 174.82 205.796 174.765C205.173 172.671 204.113 170.734 202.687 169.08C203.367 167.719 204.484 166.197 205.926 166.327C205.326 169.987 206.93 171.185 208.371 170.748C209.813 170.311 209.23 168.837 209.003 168.124C208.884 167.587 208.657 167.079 208.337 166.631C208.017 166.183 207.61 165.804 207.14 165.517C207.319 164.964 207.63 164.464 208.047 164.059C209.667 162.44 211.74 163.638 213.764 165.096C213.816 165.147 213.886 165.176 213.959 165.176C214.032 165.176 214.102 165.147 214.153 165.096C214.195 165.04 214.218 164.971 214.218 164.901C214.218 164.831 214.195 164.763 214.153 164.707C213.214 163.832 210.201 161.257 207.675 163.152ZM207.999 168.141C208.355 169.112 208.371 169.29 208.339 169.485C208.306 169.679 208.031 169.857 207.756 169.809C206.8 169.614 206.8 167.8 206.962 166.57C207.473 166.977 207.837 167.54 207.999 168.173V168.141ZM185.098 172.87C185.786 170.879 187.072 169.149 188.778 167.914C190.485 166.68 192.531 166.001 194.637 165.97C197.223 166.189 199.64 167.34 201.439 169.21C201.145 169.982 200.917 170.779 200.759 171.59C197.115 167.444 191.447 167.315 188.499 172.141C187.774 173.345 187.296 174.681 187.093 176.071C186.89 177.461 186.966 178.878 187.317 180.239C188.321 183.851 191.932 187.495 196.014 187.074C201.439 186.507 205.537 178.555 201.585 172.659C201.709 171.775 201.926 170.906 202.233 170.068C203.661 171.769 204.658 173.789 205.14 175.957C205.622 178.125 205.575 180.377 205.003 182.522C203.723 186.507 199.221 188.725 195.447 188.839C187.495 189.179 182.507 179.834 185.098 172.87ZM205.165 144.025C207.192 144.539 209.338 144.303 211.206 143.361C211.417 143.224 211.599 143.045 211.741 142.837C211.883 142.628 211.982 142.394 212.032 142.146C212.032 141.984 212.728 125.707 212.258 125.432C212.216 125.408 212.169 125.395 212.121 125.395C212.072 125.395 212.025 125.408 211.983 125.432C210.524 126.566 208.792 127.297 206.962 127.554C206.298 127.554 205.521 127.554 205.229 128.347C205.067 128.817 204.614 139.684 204.824 143.588C204.836 143.685 204.873 143.777 204.933 143.854C204.993 143.931 205.073 143.99 205.165 144.025ZM211.092 142.405C210.914 142.697 209.473 143.912 205.731 143.28C205.731 139.28 206.12 130.048 206.185 129.141C206.185 128.785 206.185 128.72 206.638 128.72C208.365 128.582 210.033 128.026 211.497 127.1C211.448 130.113 211.27 141.612 211.108 142.341L211.092 142.405ZM271.875 209.958C271.152 209.931 270.443 209.743 269.802 209.408C269.539 208.565 269.203 207.747 268.798 206.962C268.435 206.252 267.935 205.622 267.326 205.107C266.717 204.593 266.011 204.205 265.251 203.966C265.302 203.186 265.258 202.403 265.121 201.634C263.749 200.732 262.214 200.105 260.603 199.787C260.476 199.779 260.351 199.815 260.247 199.889C260.144 199.962 260.069 200.07 260.036 200.192C259.809 201.407 259.55 202.767 259.388 204.112C256.489 203.447 253.234 205.423 252.262 205.812C250.853 204.193 250.497 203.269 249.8 203.399C249.104 203.528 249.088 204.047 247.97 206.282C247.679 206.881 247.371 207.496 247.29 207.626C247.278 207.651 247.272 207.679 247.272 207.707C247.272 207.735 247.278 207.763 247.29 207.788V211.416C247.289 211.464 247.302 211.511 247.328 211.551C247.354 211.592 247.392 211.623 247.436 211.643L249.897 212.614C249.897 213.295 249.978 214.833 249.978 215.27L249.638 215.481C248.456 216.177 248.569 216.161 247.598 217.506C247.563 217.553 247.545 217.609 247.545 217.667C247.545 217.726 247.563 217.782 247.598 217.829C248.035 218.234 250.561 220.178 251.274 220.615C251.319 220.646 251.373 220.662 251.428 220.662C251.483 220.662 251.536 220.646 251.582 220.615L253.38 218.72L257.477 219.514C258.328 220.539 259.107 221.621 259.809 222.753C259.906 222.931 259.809 222.883 263.858 222.883C263.92 222.883 263.979 222.859 264.025 222.817C264.07 222.775 264.097 222.717 264.101 222.656C264.425 221.787 264.843 220.956 265.348 220.178C265.364 220.145 265.372 220.109 265.372 220.073C265.372 220.036 265.364 220 265.348 219.967L265.138 218.801L269.397 215.724L271.357 215.983C271.412 215.993 271.47 215.982 271.518 215.952C271.566 215.922 271.601 215.876 271.616 215.821L272.701 212.096C272.717 212.049 272.717 211.998 272.701 211.95C271.989 209.974 272.07 209.974 271.875 209.958ZM259.696 205.261C259.73 205.281 259.769 205.292 259.809 205.292C259.849 205.292 259.888 205.281 259.923 205.261C260.085 205.261 260.149 205.148 260.959 200.953C262.092 201.215 263.182 201.635 264.198 202.2V204.403C264.192 204.519 264.228 204.634 264.299 204.726C264.371 204.819 264.473 204.882 264.587 204.905C268.069 205.618 268.911 210.136 269.284 210.46C269.789 210.747 270.335 210.955 270.903 211.076L270.709 213.975L268.523 213.327C268.328 213.327 268.717 213.019 263.81 217.182C263.791 217.214 263.781 217.25 263.781 217.287C263.781 217.324 263.791 217.36 263.81 217.392L264.004 219.222H259.631L259.534 217.603C259.531 217.546 259.508 217.493 259.469 217.451C259.431 217.41 259.379 217.383 259.323 217.376L252.991 216.615C252.78 216.615 252.845 216.615 251.647 218.234L249.573 216.76C249.822 216.582 250.087 216.43 250.367 216.307C250.533 216.262 250.681 216.166 250.788 216.032C250.896 215.898 250.958 215.734 250.966 215.562V210.217C250.966 210.039 251.08 210.217 248.44 208.161C248.92 206.97 249.5 205.821 250.173 204.727C250.756 205.44 251.922 206.978 252.521 206.978C253.12 206.978 257.38 204.241 259.696 205.261Z" fill="#0064DD"/>
<path d="M258.595 215.481C259.361 215.683 260.158 215.732 260.942 215.623C261.726 215.515 262.481 215.252 263.163 214.849C264.036 214.178 264.641 213.217 264.869 212.139C265.098 211.062 264.935 209.938 264.41 208.97C264.11 208.487 263.706 208.078 263.227 207.772C261.241 206.709 258.925 206.442 256.749 207.027C255.916 207.28 255.199 207.819 254.725 208.549C254.309 209.286 254.077 210.113 254.049 210.959C254.021 211.804 254.197 212.645 254.563 213.408C255.621 214.552 257.049 215.286 258.595 215.481ZM255.453 211.238C255.988 210.395 257.429 210.363 258.417 210.46C262.401 210.8 263.195 211.821 263.276 212.404C263.29 212.746 263.212 213.087 263.05 213.389C262.887 213.691 262.647 213.944 262.353 214.121C261.164 214.702 259.803 214.823 258.531 214.461C257.317 214.32 256.195 213.745 255.372 212.841C255.245 212.59 255.186 212.31 255.2 212.029C255.215 211.747 255.302 211.475 255.453 211.238ZM85.0732 168.141C84.221 168.905 83.5995 169.892 83.279 170.991C82.9584 172.09 82.9516 173.257 83.2593 174.36C83.9745 176.139 85.3322 177.584 87.0631 178.409C88.7941 179.234 90.7719 179.379 92.6043 178.814C93.3557 178.667 94.07 178.371 94.7044 177.942C95.3388 177.514 95.8804 176.962 96.2969 176.319C96.8962 175.202 97.9165 169.938 94.2239 167.46C92.8167 166.61 91.1797 166.218 89.54 166.34C87.9003 166.462 86.3392 167.091 85.0732 168.141ZM95.228 173.874C94.4115 174.598 93.4373 175.121 92.3829 175.402C91.3285 175.683 90.2231 175.715 89.1546 175.493C87.7455 175.17 84.8303 173.696 84.4578 171.736C84.231 170.586 84.9437 169.436 86.5632 168.319C89.2841 166.456 93.9323 166.991 95.3576 170.052C95.7238 170.628 95.9074 171.301 95.8843 171.983C95.8612 172.665 95.6324 173.324 95.228 173.874Z" fill="#0064DD"/>
<path d="M90.7745 169.113C88.4423 168.627 87.1142 169.825 87.0494 171.072C87.0494 172.562 88.669 173.307 90.1752 173.307C93.3982 173.307 94.0784 169.809 90.7745 169.113ZM91.5519 172.141C90.5963 172.886 87.9726 172.287 87.924 171.234C87.924 170.619 88.4909 169.922 89.6732 169.922C90.4182 169.922 91.7786 170.246 91.9568 170.991C91.9834 171.201 91.9606 171.415 91.8903 171.614C91.82 171.814 91.7042 171.994 91.5519 172.141ZM275.99 185.827C274.58 184.975 272.938 184.584 271.295 184.709C269.652 184.834 268.089 185.468 266.823 186.523C265.983 187.293 265.37 188.278 265.05 189.371C264.73 190.465 264.716 191.625 265.009 192.726C265.721 194.508 267.079 195.955 268.811 196.781C270.543 197.606 272.522 197.749 274.354 197.18C275.108 197.041 275.825 196.747 276.461 196.318C277.096 195.889 277.636 195.333 278.047 194.686C278.662 193.536 279.731 188.288 275.99 185.827ZM276.994 192.305C276.179 193.031 275.205 193.556 274.15 193.837C273.095 194.118 271.989 194.148 270.921 193.925C269.512 193.601 266.58 192.143 266.208 190.167C265.981 189.017 266.694 187.867 268.313 186.75C271.083 184.855 275.699 185.454 277.108 188.483C277.455 189.047 277.63 189.7 277.61 190.362C277.59 191.024 277.376 191.666 276.994 192.208V192.305Z" fill="#0064DD"/>
<path d="M272.524 187.446C270.192 186.96 268.864 188.159 268.799 189.422C268.735 190.685 270.419 191.657 271.941 191.657C275.181 191.657 275.893 188.143 272.524 187.446ZM273.302 190.475C272.346 191.22 269.723 190.637 269.69 189.584C269.69 188.953 270.241 188.256 271.423 188.256C272.152 188.256 273.545 188.564 273.723 189.341C273.744 189.55 273.717 189.76 273.644 189.957C273.571 190.153 273.454 190.33 273.302 190.475ZM196.388 120.023C195.655 119.829 194.885 119.829 194.153 120.023C194.12 120.03 194.09 120.045 194.063 120.064C194.036 120.084 194.013 120.109 193.997 120.138C193.98 120.167 193.969 120.199 193.966 120.232C193.962 120.265 193.965 120.299 193.975 120.331L194.137 120.849C194.266 121.254 194.752 120.703 196.129 120.962C195.61 124.202 198.072 126.161 199.368 124.72C200.663 123.278 199.092 121.06 197.343 120.282C197.751 119.357 198.493 118.619 199.421 118.217C200.348 117.815 201.394 117.777 202.348 118.112C202.421 118.14 202.502 118.138 202.573 118.106C202.645 118.074 202.701 118.015 202.728 117.942C202.756 117.869 202.754 117.788 202.722 117.716C202.69 117.645 202.631 117.589 202.558 117.561C201.996 117.289 201.383 117.138 200.758 117.116C200.134 117.093 199.511 117.202 198.931 117.433C198.351 117.665 197.825 118.015 197.387 118.461C196.949 118.906 196.609 119.438 196.388 120.023ZM197.732 123.926C197.453 123.559 197.253 123.137 197.144 122.688C197.035 122.24 197.02 121.773 197.1 121.319C199.87 122.663 198.914 125.27 197.732 123.926ZM174.021 129.141C172.662 129.188 171.35 129.65 170.263 130.467C169.175 131.283 168.365 132.413 167.94 133.705C167.516 134.997 167.498 136.388 167.89 137.69C168.281 138.992 169.063 140.143 170.13 140.986C171.196 141.829 172.496 142.325 173.853 142.406C175.21 142.487 176.56 142.15 177.719 141.439C178.878 140.728 179.792 139.679 180.335 138.432C180.879 137.186 181.027 135.803 180.759 134.47C180.48 132.912 179.641 131.51 178.4 130.528C177.159 129.547 175.601 129.053 174.021 129.141ZM185.893 112.751C185.515 112.796 185.159 112.952 184.87 113.2C184.582 113.448 184.374 113.777 184.273 114.144C183.917 115.31 184.727 116.849 185.763 116.93C186.315 116.849 186.814 116.558 187.155 116.117C187.497 115.676 187.654 115.119 187.593 114.565C187.567 114.112 187.382 113.682 187.071 113.351C186.761 113.019 186.344 112.807 185.893 112.751ZM74.5627 122.404C73.4452 122.663 72.6678 126.275 73.4452 129.303C74.1092 131.976 76.0365 134.777 77.1702 134.502C78.3039 134.227 78.6116 130.583 77.98 127.813C77.3484 125.044 75.7288 122.209 74.5627 122.404Z" fill="#0064DD"/>
<path d="M194.799 104.685C194.824 104.388 194.783 104.089 194.679 103.809C194.576 103.529 194.412 103.275 194.2 103.066C193.601 102.645 192.71 103.066 192.451 103.066C167.72 107.406 153.759 100.28 152.512 100.75C151.265 101.219 150.374 102.985 150.082 117.156V140.073C150.941 141.142 173.939 164.918 195.139 141.693C194.912 136.332 194.993 112.492 194.799 104.685ZM159.67 106.305C160.278 106.155 160.916 106.195 161.5 106.419C162.084 106.643 162.586 107.041 162.937 107.558C163.288 108.076 163.472 108.689 163.464 109.315C163.457 109.94 163.257 110.548 162.894 111.057C162.53 111.566 162.019 111.951 161.429 112.161C160.84 112.37 160.2 112.394 159.597 112.23C158.994 112.065 158.455 111.719 158.054 111.239C157.653 110.759 157.409 110.167 157.354 109.544C157.288 108.818 157.485 108.092 157.911 107.5C158.336 106.908 158.961 106.49 159.67 106.321V106.305ZM159.022 125.983V122.485C157.521 122.387 156.088 121.82 154.925 120.865C154.812 121.27 154.682 121.659 154.569 122.047C154.182 122.244 153.755 122.346 153.321 122.346C152.888 122.346 152.461 122.244 152.074 122.047C151.885 118.662 151.961 115.266 152.301 111.892C152.463 112.184 155.411 117.286 160.399 117.464C165.387 117.642 170.36 112.978 170.748 106.337C173.619 106.813 176.423 107.622 179.105 108.75C178.685 110.12 177.758 111.279 176.514 111.99L174.587 111.212C174.436 112.219 174.119 113.193 173.647 114.095L175.866 116.784C175.715 117.533 175.392 118.238 174.922 118.842C174.453 119.446 173.85 119.933 173.161 120.266L170.716 118.338C169.984 119.422 169.008 120.318 167.865 120.954C166.723 121.59 165.447 121.948 164.14 121.999V124.881C163.585 125.678 162.749 126.236 161.8 126.443C160.852 126.65 159.859 126.492 159.022 125.999V125.983ZM186.199 134.761C185.402 134.947 184.588 135.044 183.77 135.052C183.907 136.13 183.703 137.223 183.187 138.178L186.199 140.559C185.589 142.153 184.518 143.529 183.122 144.511C182.83 144.316 181.292 143.393 180.871 143.183C179.967 144.069 178.852 144.71 177.631 145.045C177.631 145.596 177.631 146.163 177.518 146.665C176.705 147.129 175.805 147.42 174.874 147.521C173.943 147.621 173.002 147.528 172.109 147.248L171.817 144.932C170.341 144.407 168.982 143.599 167.817 142.551L165.841 144.3C164.927 144.07 164.131 143.508 163.607 142.724C163.084 141.94 162.87 140.99 163.007 140.057L165.031 138.713C164.788 137.883 164.788 137 165.031 136.17C163.767 135.437 162.565 134.603 161.436 133.676C161.213 132.898 161.251 132.069 161.543 131.314C161.835 130.56 162.366 129.922 163.055 129.497L165.42 131.004C166.068 129.402 167.201 128.043 168.659 127.117C168.189 126.048 167.703 124.979 167.218 123.877L170.133 121.901L173.097 125.902C174.272 125.741 175.467 125.785 176.627 126.031C177.334 124.891 178.13 123.807 179.008 122.792C180.154 123.534 181.237 124.368 182.247 125.286C181.83 126.396 181.343 127.478 180.79 128.526C181.381 128.92 181.879 129.44 182.247 130.048C183.053 129.742 183.889 129.524 184.741 129.4C185.394 130.116 185.866 130.978 186.119 131.913C186.373 132.848 186.4 133.83 186.199 134.777V134.761ZM190.653 116.784L189.033 116.524C189.004 116.717 188.922 116.898 188.796 117.046C188.67 117.195 188.506 117.306 188.321 117.367L189.292 118.743C189.282 118.945 189.232 119.142 189.145 119.324C189.057 119.506 188.935 119.669 188.784 119.803C188.633 119.937 188.458 120.04 188.267 120.105C188.076 120.171 187.874 120.198 187.673 120.185C187.199 119.692 186.78 119.149 186.426 118.565C186.083 118.639 185.729 118.644 185.384 118.58C185.04 118.516 184.711 118.384 184.418 118.193C183.996 118.759 183.575 119.31 183.17 119.812C182.758 119.86 182.341 119.757 181.999 119.522C181.656 119.287 181.411 118.935 181.308 118.533L182.749 117.026C182.532 116.816 182.359 116.564 182.24 116.286C182.12 116.008 182.057 115.709 182.053 115.407C181.16 115.419 180.267 115.37 179.381 115.261C179.332 114.593 179.332 113.921 179.381 113.253C180.398 113.147 181.424 113.147 182.442 113.253C182.441 112.918 182.533 112.589 182.707 112.304C182.881 112.018 183.131 111.786 183.43 111.633C183.067 110.703 182.764 109.751 182.523 108.783C183.096 108.482 183.714 108.274 184.353 108.167C184.845 108.899 185.299 109.656 185.713 110.435C186.209 110.384 186.71 110.456 187.171 110.645C187.53 110.103 187.937 109.594 188.385 109.123C189.021 109.373 189.58 109.787 190.005 110.321L188.693 111.763C189.005 112.152 189.23 112.604 189.353 113.087C189.475 113.57 189.494 114.074 189.406 114.565L190.847 115.051C190.945 115.64 190.878 116.246 190.653 116.8V116.784ZM283.763 140.478C283.763 138.583 283.892 135.619 282.046 134.259C280.426 133.028 273.155 137.304 244.083 134.712C243.403 134.712 242.706 136.057 242.463 141.725C242.285 145.207 242.949 155.864 243.225 159.541C245.978 161.306 263.356 169.129 284.33 159.541C283.73 151.038 283.666 144.883 283.763 140.478ZM247.29 146.746C247.178 146.86 247.026 146.924 246.866 146.926C246.707 146.928 246.553 146.866 246.439 146.754C246.326 146.642 246.261 146.49 246.259 146.331C246.258 146.171 246.32 146.018 246.431 145.904L249.444 142.745C248.585 141.984 247.824 141.126 246.852 140.316C246.747 140.213 246.687 140.072 246.686 139.925C246.684 139.778 246.741 139.636 246.844 139.531C246.947 139.425 247.088 139.365 247.235 139.364C247.383 139.362 247.525 139.419 247.63 139.523C248.407 140.235 249.249 140.964 250.367 141.79C250.95 141.174 252.651 139.393 253.185 138.907C253.321 138.805 253.49 138.756 253.66 138.767C253.83 138.779 253.99 138.851 254.111 138.97C254.232 139.09 254.307 139.249 254.321 139.418C254.336 139.588 254.289 139.757 254.189 139.895C253.687 140.462 252.003 142.114 251.485 142.616C252.314 143.179 253.114 143.784 253.881 144.43C253.999 144.535 254.075 144.68 254.096 144.836C254.117 144.993 254.082 145.152 253.996 145.285C253.91 145.418 253.779 145.515 253.628 145.561C253.476 145.606 253.313 145.595 253.169 145.531C252.213 144.982 251.313 144.342 250.48 143.62L247.29 146.746ZM276.054 152.836C275.908 153.816 275.859 154.809 275.908 155.799C275.914 155.875 275.906 155.951 275.882 156.024C275.859 156.096 275.821 156.163 275.771 156.22C275.721 156.278 275.66 156.325 275.592 156.358C275.524 156.391 275.449 156.411 275.373 156.415C275.216 156.42 275.063 156.367 274.943 156.265C274.823 156.163 274.746 156.02 274.726 155.864C274.679 155.087 274.679 154.309 274.726 153.532C274.726 153.532 253.509 154.358 251.161 154.39C251.095 155.418 251.182 156.449 251.42 157.451C251.458 157.593 251.439 157.744 251.366 157.872C251.293 158 251.173 158.093 251.031 158.132C250.889 158.17 250.738 158.151 250.61 158.078C250.483 158.005 250.389 157.885 250.351 157.743C249.939 156.441 249.801 155.068 249.946 153.71C249.958 153.545 250.035 153.392 250.159 153.283C250.283 153.174 250.445 153.118 250.61 153.127C251.841 153.257 275.13 152.107 275.341 152.107C275.381 152.087 275.426 152.076 275.471 152.076C275.515 152.076 275.56 152.087 275.6 152.107C275.752 152.152 275.881 152.251 275.965 152.385C276.048 152.519 276.08 152.68 276.054 152.836ZM278.175 140.527L274.045 143.604C274.612 144.106 276.28 145.499 276.718 146.001C276.823 146.108 276.885 146.25 276.893 146.4C276.901 146.55 276.853 146.698 276.76 146.815C276.666 146.933 276.533 147.012 276.385 147.038C276.237 147.064 276.084 147.035 275.956 146.956C274.904 146.197 273.903 145.37 272.96 144.478C272.264 145.07 271.599 145.697 270.968 146.357C270.482 146.908 269.672 146.147 270.158 145.596C270.644 145.045 271.357 144.284 272.021 143.588C271.049 142.632 270.158 141.628 269.316 140.689C269.232 140.574 269.193 140.432 269.206 140.291C269.219 140.149 269.283 140.017 269.387 139.92C269.49 139.822 269.626 139.766 269.768 139.761C269.91 139.757 270.049 139.804 270.158 139.895C271.065 140.851 272.021 141.758 273.009 142.681C274.423 141.515 275.905 140.433 277.446 139.442C278.11 139.15 278.774 140.041 278.175 140.478V140.527Z" fill="#0064DD"/>
<path d="M306.665 99.8752H264.005C264.005 97.0247 264.28 60.6003 264.329 58.1223C265.295 58.0139 266.209 57.6293 266.962 57.0145C267.714 56.3996 268.274 55.5807 268.573 54.6559C268.872 53.7311 268.898 52.7396 268.648 51.8004C268.398 50.8611 267.882 50.0139 267.163 49.3604C266.461 48.7038 265.576 48.2759 264.626 48.1331C263.676 47.9904 262.704 48.1395 261.841 48.5609C260.977 48.9822 260.261 49.6559 259.789 50.4927C259.316 51.3295 259.109 52.2901 259.195 53.2474C259.257 54.415 259.709 55.5279 260.478 56.4086C261.247 57.2893 262.289 57.887 263.438 58.1061C263.049 67.6131 262.903 89.9957 262.92 99.8914C249.558 99.8914 237.654 99.8914 234.755 99.7618L227.03 90.9027C226.819 86.0439 223.272 82.9019 217.539 82.5456C214.646 82.4076 211.792 83.2525 209.441 84.9426C207.838 84.2568 206.398 83.2415 205.214 81.9626C205.248 80.7609 204.908 79.5784 204.242 78.5777C201.894 75.0146 197.262 74.4963 193.893 74.1238C189.844 73.6865 185.941 73.4274 182.297 73.395C182.021 71.6157 182.054 69.8022 182.394 68.0342C185.633 71.2733 189.455 68.9087 188.289 65.5886C187.917 64.5521 186.896 62.6733 185.422 62.3494C183.609 61.9121 182.604 63.969 181.989 65.702C181.488 64.743 181.194 63.6893 181.128 62.6094C181.061 61.5296 181.222 60.4477 181.6 59.4342C182.25 57.8711 183.471 56.6141 185.014 55.9191C186.558 55.2241 188.308 55.1432 189.909 55.6929C189.661 57.1484 189.98 58.6434 190.8 59.8715C190.998 60.1686 191.281 60.3992 191.612 60.5334C191.943 60.6677 192.307 60.6993 192.656 60.6242C193.005 60.5491 193.324 60.3708 193.57 60.1124C193.817 59.854 193.98 59.5274 194.039 59.175C194.427 57.4583 192.694 55.8063 191.107 55.0451C191.472 53.8118 192.133 52.6869 193.034 51.7692C193.935 50.8514 195.047 50.1689 196.274 49.7814C199.523 48.8356 202.941 48.6199 206.283 49.1498C206.367 49.1478 206.448 49.1158 206.511 49.0595C206.574 49.0033 206.615 48.9265 206.627 48.8428C206.639 48.7592 206.62 48.6741 206.575 48.6028C206.53 48.5314 206.461 48.4785 206.38 48.4534C202.853 47.5881 199.154 47.734 195.707 48.8745C194.404 49.3474 193.227 50.1131 192.266 51.1128C191.306 52.1124 190.588 53.3192 190.168 54.6402C188.676 54.1607 187.074 54.1422 185.572 54.5872C184.069 55.0321 182.736 55.9198 181.746 57.1344C180.694 58.5707 180.118 60.3 180.097 62.0802C180.077 63.8604 180.614 65.6025 181.633 67.0624C181.118 69.1339 181.03 71.2884 181.374 73.395C175.023 73.3224 168.689 74.0515 162.522 75.5652C161.469 70.998 157.663 68.9087 155.395 69.6214C151.93 66.3822 144.204 66.3822 140.576 71.2409C140.236 71.6782 140.933 72.1641 141.273 71.7268C144.35 67.5969 151.185 67.2082 154.424 70.0586C154.035 70.3292 153.716 70.6869 153.491 71.1032C153.266 71.5195 153.142 71.9826 153.128 72.4556C153.128 74.3181 154.974 75.468 156.124 74.2048C156.531 73.6816 156.752 73.0376 156.752 72.3746C156.752 71.7117 156.531 71.0677 156.124 70.5445C157.971 70.3664 160.724 72.1641 161.517 75.8244C157.371 76.9581 152.755 78.9016 152.707 83.9223C150.363 83.2552 147.872 83.3173 145.565 84.1004C143.289 85.1528 141.442 86.9535 140.333 89.2021C139.005 91.3113 138.123 93.6705 137.742 96.1339C137.547 97.2791 137.444 98.4382 137.434 99.5998C122.955 99.5998 26.1688 99.8104 26.1688 99.8104C26.0572 99.8104 25.95 99.8548 25.8711 99.9337C25.7921 100.013 25.7477 100.12 25.7477 100.231C25.7477 100.343 25.7921 100.45 25.8711 100.529C25.95 100.608 26.0572 100.653 26.1688 100.653H137.531C137.588 101.378 137.831 102.077 138.236 102.682C138.642 103.286 139.197 103.775 139.847 104.102C137.992 114.5 137.226 125.063 137.564 135.619C137.807 143.167 137.564 147.588 144.722 151.378C142.984 151.629 141.402 152.518 140.285 153.872C138.228 156.723 139.005 162.828 139.443 166.294C139.004 166.703 138.667 167.209 138.458 167.771C138.25 168.334 138.177 168.937 138.244 169.533C131.393 171.364 127.117 173.939 79.939 195.916C79.939 195.916 74.8859 187.9 73.072 185.065C73.0386 185.013 72.9864 184.975 72.9261 184.96C72.8659 184.945 72.8022 184.954 72.7481 184.984L62.1884 190.685C62.1439 190.731 62.1189 190.792 62.1189 190.855C62.1189 190.919 62.1439 190.98 62.1884 191.025C65.7839 196.629 79.7933 216.048 83.6803 221.085C79.275 219.919 64.7149 216.534 60.3744 215.837C59.4858 215.841 58.6059 215.662 57.7896 215.31C56.9732 214.959 56.2378 214.444 55.6291 213.797C55.0622 212.987 42.8991 190.993 40.2106 185.94C43.2716 186.652 57.5564 189.665 59.7266 189.924C59.8886 189.924 59.4027 190.102 69.93 184.709C69.9758 184.691 70.0152 184.66 70.043 184.62C70.0708 184.579 70.0857 184.531 70.0857 184.482C70.0857 184.433 70.0708 184.385 70.043 184.345C70.0152 184.304 69.9758 184.273 69.93 184.255C65.5571 183.786 50.2035 181.599 47.0615 181.016C46.8347 181.016 39.2551 184.677 38.7854 184.903C38.7457 184.926 38.7127 184.959 38.69 184.999C38.6672 185.039 38.6554 185.084 38.6558 185.13C38.6558 185.292 54.0095 212.971 54.4144 213.602C54.8128 214.386 55.3897 215.066 56.0985 215.586C56.8074 216.106 57.6284 216.453 58.4957 216.599C60.2125 216.971 84.1823 222.559 84.9759 222.818C85.1865 222.818 84.7168 223.174 92.9767 216.987C93.0165 216.943 93.0385 216.885 93.0385 216.825C93.0385 216.766 93.0165 216.708 92.9767 216.663L92.0535 215.19C99.7627 211.74 141.742 192.305 144.22 191.009C145.451 190.361 146.552 189.778 147.654 189.147C171.591 196.451 191.156 195.836 207.465 187.268C209.778 186.056 211.993 184.664 214.089 183.106C216.228 181.436 218.237 179.606 220.098 177.631C220.098 177.453 219.693 151.718 219.175 150.358C218.849 149.515 218.286 148.784 217.555 148.252C218.951 146.909 220.049 145.288 220.78 143.495C221.511 141.701 221.858 139.774 221.798 137.838C221.798 135.166 221.167 117.512 220.956 113.431C240.391 129.254 239.144 127.797 239.015 128.121C235.775 136.607 236.504 156.82 236.877 165.857C236.851 168.084 237.41 170.278 238.496 172.222C239.746 173.988 241.348 175.475 243.202 176.59C245.056 177.705 247.121 178.424 249.266 178.7C257.575 180.126 271.795 179.381 279.941 177.745C289.918 175.736 293.497 172.4 293.951 163.703C294.064 165.096 295.149 165.711 296.769 164.173C297.865 162.812 298.851 161.366 299.717 159.848C300.703 159.728 301.645 159.37 302.463 158.806C303.281 158.242 303.95 157.488 304.413 156.609C305.6 154.441 306.055 151.947 305.709 149.499C305.288 146.26 303.927 140.413 299.684 138.794C298.666 138.367 297.558 138.199 296.459 138.303C295.36 138.408 294.304 138.782 293.384 139.393C293.128 138.465 292.809 137.556 292.428 136.672C291.198 128.056 288.687 117.642 280.524 113.042C278.197 111.864 275.671 111.128 273.074 110.872C273.114 109.639 273.065 108.405 272.929 107.18C272.891 106.744 272.744 106.325 272.5 105.963C272.257 105.6 271.925 105.305 271.536 105.106C269.754 104.005 266.434 103.957 264.005 104.248V100.847C282.792 100.847 303.717 100.717 306.697 100.588C307.118 100.588 307.118 99.8752 306.665 99.8752ZM184.354 63.5803C184.839 63.2078 185.374 63.2726 185.973 63.807C186.485 64.2018 186.898 64.7102 187.179 65.2921C187.46 65.874 187.602 66.5134 187.593 67.1596C187.301 68.7792 184.839 69.346 182.831 66.7709C183.056 65.5941 183.58 64.4952 184.354 63.5803ZM190.994 56.0978C191.513 56.37 191.983 56.7257 192.387 57.1506C194.006 58.7701 192.613 60.082 191.868 59.4018C191.501 58.9423 191.233 58.4111 191.082 57.8421C190.932 57.2732 190.902 56.6791 190.994 56.0978ZM155.525 73.2816C155.217 73.8485 154.65 73.7027 154.359 73.2816C154.158 72.8508 154.127 72.3602 154.271 71.9072C154.415 71.4542 154.724 71.0719 155.136 70.836C155.419 71.1688 155.605 71.573 155.674 72.0043C155.742 72.4357 155.691 72.8775 155.525 73.2816ZM262.936 100.815V104.378C261.316 104.653 258.077 105.252 257.915 106.92C257.693 108.345 257.601 109.787 257.64 111.228C254.065 111.325 250.632 112.652 247.922 114.986C245.039 111.569 239.986 105.722 235.549 100.62C240.262 100.831 251.08 100.879 262.936 100.879V100.815ZM226.495 91.5505L228.341 93.7532C226.697 93.4619 225.009 93.5327 223.395 93.9607C221.782 94.3887 220.28 95.1635 218.996 96.2311C215.401 99.4703 215.028 105.106 215.061 107.568C214.068 106.427 213.323 105.092 212.874 103.648C212.426 102.203 212.282 100.682 212.453 99.1788C212.648 97.79 213.125 96.4557 213.855 95.2581C214.585 94.0604 215.552 93.0247 216.697 92.2145C218.155 91.3181 219.812 90.7946 221.521 90.6901C223.23 90.5856 224.938 90.9033 226.495 91.6153V91.5505ZM213.182 85.0722C214.348 84.3758 215.385 84.392 215.952 85.0722C216.219 85.4418 216.349 85.8931 216.32 86.3484C216.29 86.8037 216.103 87.2345 215.79 87.5663C214.786 88.7085 213.449 89.5071 211.967 89.85C210.899 90.1091 210.089 90.1577 209.587 91.0646C208.745 92.5709 207.125 91.5181 208.161 89.7528C209.395 87.7994 211.128 86.2113 213.182 85.1532V85.0722ZM207.303 97.7049C207.189 97.8651 207.03 97.9877 206.846 98.057C206.662 98.1264 206.462 98.1392 206.271 98.094C206.079 98.0488 205.906 97.9476 205.772 97.8032C205.639 97.6589 205.552 97.4781 205.522 97.2838C205.425 96.8079 205.433 96.3167 205.545 95.8441C205.656 95.3715 205.87 94.9288 206.169 94.5467C206.33 94.3938 206.531 94.2892 206.748 94.2448C206.965 94.2004 207.191 94.2181 207.399 94.2958C207.606 94.3735 207.788 94.5081 207.923 94.6842C208.058 94.8604 208.141 95.0709 208.161 95.2918C208.156 96.1946 207.854 97.0707 207.303 97.7859V97.7049ZM181.584 74.3667C181.714 74.9336 181.876 75.5004 182.054 75.9863C171.478 75.9863 166.862 77.0229 162.619 78.2375C162.675 77.6613 162.675 77.0809 162.619 76.5046C168.85 75.1394 175.205 74.423 181.584 74.3667ZM155.039 80.2134C156.184 78.8351 157.748 77.8684 159.493 77.4601C160.125 77.2334 160.821 77.0229 161.647 76.8123C161.712 77.4098 161.712 78.0125 161.647 78.61C151.93 81.6387 158.133 84.5863 168.223 86.3679C175.673 87.6797 193.018 87.3558 198.995 82.8534C200.614 81.6225 201.213 80.2944 199.675 78.9502C196.841 76.5208 188.046 76.0835 182.945 76.0349C182.754 75.5056 182.597 74.9646 182.475 74.4153C187.204 74.4656 191.923 74.8498 196.598 75.5652C204.404 76.9257 205.894 82.0436 202.218 86.5298C197.618 92.0364 188.759 92.8786 182.475 93.0081C176.15 93.2947 169.813 92.8052 163.607 91.5505C161.598 91.2082 159.628 90.6656 157.728 89.9309C155.984 89.0847 154.633 87.6001 153.954 85.7848C153.7 84.8347 153.666 83.8393 153.854 82.8739C154.042 81.9086 154.447 80.9988 155.039 80.2134ZM141.03 166.391C142.372 165.741 143.874 165.494 145.354 165.679C148.125 165.757 150.82 166.598 153.144 168.108C156.383 170.327 158.003 174.117 158.165 179.672C158.237 181.115 158.045 182.558 157.598 183.932C156.416 187.025 153.274 187.64 151.638 186.312C152.867 185.244 153.819 183.893 154.41 182.375C155.002 180.857 155.216 179.219 155.035 177.6C154.853 175.981 154.281 174.431 153.368 173.082C152.454 171.734 151.227 170.627 149.792 169.857C147.055 168.367 143.621 168.157 139.297 169.161C139.304 168.585 139.469 168.022 139.775 167.533C140.081 167.045 140.515 166.65 141.03 166.391ZM91.5028 214.283C89.0897 210.428 82.0607 199.269 80.3601 196.581L88.458 192.936C94.0267 197.405 97.7238 203.794 98.8234 210.849C98.8396 211.011 99.3578 210.655 91.5028 214.283ZM99.6979 210.525C99.288 206.981 98.1621 203.557 96.3887 200.461C94.6152 197.365 92.2311 194.662 89.3812 192.515C93.9646 190.458 98.548 188.369 103.034 186.312C111.003 190.718 112.444 202.055 112.671 204.581L99.6979 210.525ZM113.545 204.193C112.541 190.977 106.063 186.733 104.2 185.778C106.614 184.677 114.663 180.919 117.659 179.51C127.377 181.033 129.774 194.945 130.033 196.678C127.474 197.828 117.173 202.541 113.545 204.193ZM146.585 188.693C145.273 189.357 133.855 194.912 130.859 196.305C128.964 182.944 122.534 179.607 119.182 178.781C122.421 177.162 131.393 172.902 135.07 171.59C145.37 172.659 146.747 185.907 146.585 188.693ZM147.443 188.191C147.735 175.024 140.204 171.574 137.58 170.781C144.058 168.902 148.528 169.485 151.476 172.562C153.046 174.205 153.95 176.372 154.013 178.643C154.076 180.914 153.293 183.128 151.816 184.855C150.484 186.122 149.018 187.241 147.443 188.191ZM218.462 153.678C218.608 156.269 219.094 176.595 219.158 177.388C215.718 180.296 212.111 183 208.356 185.486C192.532 194.426 172.984 195.414 148.642 188.499C149.419 187.997 150.423 187.268 150.844 186.976C152.61 188.807 155.897 188.126 157.468 186.183C159.606 183.543 159.396 179.704 158.975 176.66C158.003 169.436 153.436 165.323 145.775 164.594C143.91 164.377 142.023 164.715 140.349 165.565C140.155 163.444 139.977 161.274 139.961 159.087C167.251 167.898 194.379 166.003 218.462 153.678ZM220.827 136.219C220.6 139.717 220.94 141.077 219.628 143.717C210.218 163.152 149.273 158.099 140.981 147.167C138.649 144.106 138.827 140.592 138.681 136.121C138.42 128.009 138.772 119.888 139.734 111.828C141.888 94.0609 147.945 87.5987 152.804 85.3151C153.015 86.4812 154.132 90.3196 160.06 91.7935C162.295 92.3279 164.481 92.911 166.7 93.2673C173.551 94.3686 185.18 94.6601 192.014 93.2673C195.725 92.6168 199.19 90.9711 202.039 88.5057C203.597 87.1163 204.684 85.2768 205.149 83.242C206.142 84.2582 207.311 85.0867 208.599 85.6876C204.744 88.5705 202.622 91.5667 201.958 95.0974C201.58 97.5465 201.791 100.05 202.574 102.402C203.107 104.535 204.053 106.544 205.36 108.313C208.825 112.88 215.19 116.411 219.709 112.897C219.887 115.844 221.005 133.595 220.827 136.219ZM216.097 108.686C215.935 98.9682 219.92 93.2835 229.394 95.065C230.722 96.6846 232.067 98.1908 233.411 99.7456C231.662 99.5967 229.902 99.8657 228.278 100.53C226.653 101.195 225.209 102.236 224.066 103.568C222.084 106.106 221.017 109.239 221.037 112.459C219.32 111.309 217.676 110.055 216.114 108.702L216.097 108.686ZM222.138 112.945C222.045 111.241 222.292 109.536 222.865 107.929C223.437 106.322 224.325 104.845 225.475 103.584C226.61 102.44 228.001 101.582 229.533 101.08C231.064 100.579 232.693 100.449 234.285 100.701L238.739 105.835C237.271 105.581 235.763 105.695 234.349 106.167C232.936 106.639 231.662 107.454 230.641 108.54C228.593 111.037 227.451 114.154 227.402 117.383C225.685 116.087 222.543 113.415 222.138 112.945ZM228.455 118.274C228.356 116.575 228.608 114.874 229.196 113.277C229.784 111.681 230.695 110.222 231.872 108.993C232.904 108.021 234.166 107.325 235.539 106.971C236.913 106.617 238.353 106.616 239.727 106.969C240.602 107.973 242.707 110.386 243.517 111.342C240.813 111.7 238.326 113.014 236.505 115.046C234.685 117.077 233.65 119.693 233.589 122.42L228.455 118.274ZM234.577 123.132C234.705 121.888 234.943 120.658 235.289 119.456C235.708 118.137 236.367 116.907 237.233 115.828C239.057 113.8 241.531 112.471 244.23 112.071L247.226 115.537C243.761 118.724 241.074 122.663 239.371 127.052C237.881 125.902 235.079 123.651 234.577 123.246V123.132ZM293.935 162.213C293.935 160.01 293.935 158.974 293.773 157.581L293.918 157.435C294.277 157.737 294.668 157.997 295.084 158.213C294.465 159.506 294.076 160.899 293.935 162.326V162.213ZM287.149 161.16C287.042 161.18 286.932 161.17 286.832 161.13C286.732 161.09 286.645 161.021 286.582 160.933C286.475 160.649 286.433 160.345 286.459 160.043C286.484 159.74 286.576 159.447 286.727 159.184C287.726 157.606 288.917 156.159 290.274 154.876C291.311 153.791 292.59 152.625 294.032 152.949C294.199 152.994 294.355 153.072 294.492 153.178C294.628 153.284 294.742 153.416 294.827 153.567C294.911 153.718 294.965 153.885 294.984 154.057C295.003 154.229 294.988 154.403 294.939 154.569C294.453 156.674 288.995 161.209 287.23 161.274L287.149 161.16ZM297.287 162.116C296.922 162.705 296.487 163.249 295.991 163.735C295.279 164.351 294.809 164.61 294.696 163.735C294.663 163.088 294.751 162.44 294.955 161.824C295.408 159.994 296.186 157.435 297.53 156.366C297.738 156.153 298.014 156.019 298.31 155.99C298.607 155.96 298.904 156.036 299.15 156.204C299.781 156.674 300.008 158.294 297.287 162.229V162.116ZM293.53 140.478C294.242 139.871 295.093 139.448 296.008 139.247C296.967 139.042 297.963 139.076 298.907 139.344C302.859 140.559 303.765 144.317 304.591 148.398C305.118 150.622 304.96 152.954 304.138 155.087C303.828 156.014 303.298 156.852 302.592 157.529C301.887 158.206 301.028 158.702 300.089 158.974C300.899 157.354 300.316 154.941 298.372 154.941C297.012 154.941 296.105 156.253 295.441 157.484C295.045 157.408 294.686 157.203 294.42 156.901C295.7 155.556 296.672 153.888 295.327 152.593C294.839 152.201 294.238 151.975 293.613 151.946C292.987 151.917 292.368 152.086 291.845 152.431C291.716 152.042 291.457 151.329 291.359 150.973C292.185 150.601 294.599 149.467 294.599 147.88C294.599 146.697 292.283 146.552 291.1 146.746C291.046 145.166 291.288 143.589 291.813 142.098C292.228 142.081 292.626 141.923 292.938 141.649C293.251 141.375 293.459 141.001 293.53 140.592V140.478ZM287.31 151.945C286.514 152.234 285.696 152.461 284.865 152.625C283.893 152.819 284.671 152.123 285.383 151.427C287.634 149.208 289.691 147.523 292.736 147.523C293.319 147.523 293.918 147.653 293.708 148.187C293.238 149.548 288.995 151.459 287.31 152.058V151.945ZM292.574 140.527C292.532 140.67 292.456 140.801 292.353 140.909C292.25 141.017 292.123 141.099 291.982 141.148C291.841 141.197 291.691 141.212 291.543 141.191C291.395 141.17 291.255 141.115 291.133 141.029C290.564 140.593 290.094 140.041 289.756 139.409C289.011 138.34 286.727 135.053 287.294 133.32C287.335 133.168 287.41 133.027 287.514 132.909C287.618 132.791 287.748 132.699 287.894 132.639C288.671 132.348 289.335 133.287 289.805 133.951C290.647 135.279 292.898 138.859 292.574 140.64V140.527ZM272.896 112.573C272.982 112.334 273.026 112.082 273.026 111.828C277.771 112.686 280.8 113.804 284.071 117.334C288.655 122.274 290.015 128.785 291.036 134.162L290.55 133.498C290.114 132.782 289.469 132.217 288.703 131.878C288.323 131.764 287.916 131.781 287.547 131.924C287.177 132.068 286.866 132.331 286.663 132.672C285.659 134.291 287.262 137.336 287.602 137.935C288.153 138.891 288.752 139.733 289.303 140.527C289.702 141.23 290.307 141.795 291.036 142.146C290.54 143.717 290.31 145.359 290.355 147.005C288.355 147.743 286.553 148.935 285.092 150.487L284.719 150.876C283.974 151.621 283.424 152.172 283.521 152.836C283.536 152.967 283.578 153.094 283.645 153.208C283.712 153.323 283.802 153.422 283.909 153.5C284.429 153.709 285.009 153.709 285.529 153.5C287.289 152.972 288.997 152.283 290.631 151.443C290.76 151.896 291.019 152.625 291.149 152.965C289.996 153.969 288.913 155.051 287.91 156.204C286.695 157.662 284.833 159.848 285.82 161.452C287.149 163.573 291.149 160.237 292.963 158.52C293.238 164.675 292.963 170.343 288.849 173.372C283.812 177.081 272.993 177.874 267.795 178.231C262.596 178.587 251.906 178.83 246.546 177.081C243.128 175.963 238.853 173.016 238.059 168.4C237.703 166.278 237.832 136.915 239.079 132.202C241.492 122.97 248.198 112.2 257.705 112.2C257.696 112.434 257.758 112.666 257.883 112.864C258.91 113.674 260.114 114.229 261.397 114.484C264.203 115.244 267.167 115.199 269.949 114.354C271.088 114.07 272.115 113.449 272.896 112.573ZM272.184 112.135C269.9 114.014 266.402 114.532 261.802 113.755C260.671 113.573 259.596 113.135 258.66 112.476C258.66 112.135 258.579 109.803 258.579 108.54C261.235 110.84 269.042 111.779 272.07 108.815C272.086 109.706 272.119 111.552 272.184 112.135ZM270.904 105.981C272.151 106.726 272.151 107.406 271.066 108.265C269.016 109.531 266.555 109.955 264.199 109.447C259.891 108.637 259.016 107.682 258.854 107.406C258.837 107.348 258.837 107.286 258.854 107.228C259.583 105.22 268.151 104.345 270.904 105.981Z" fill="#0064DD"/>
<path d="M210.332 121.448C210.292 120.935 210.063 120.455 209.689 120.102C209.315 119.749 208.822 119.548 208.308 119.537C207.881 119.553 207.461 119.657 207.076 119.844C206.691 120.031 206.35 120.296 206.073 120.622C205.79 120.898 205.593 121.25 205.506 121.635C205.419 122.02 205.446 122.422 205.583 122.793C205.721 123.163 205.962 123.486 206.279 123.721C206.596 123.957 206.975 124.096 207.369 124.121C208.108 124.128 208.823 123.857 209.372 123.362C209.921 122.867 210.263 122.184 210.332 121.448ZM208.713 122.711C208.081 123.197 206.802 123.359 206.543 122.452C206.089 120.833 208.956 119.634 209.393 121.367C209.411 121.625 209.357 121.883 209.237 122.112C209.117 122.34 208.935 122.531 208.713 122.663V122.711Z" fill="#0064DD"/>
</g>
<defs>
<clipPath id="clip0_1718_1704">
<rect width="338" height="303" fill="white"/>
</clipPath>
</defs>
</svg>
