<svg width="296" height="204" viewBox="0 0 296 204" fill="none" xmlns="http://www.w3.org/2000/svg">
<path d="M53.6422 183.966V17.2474C53.6422 13.036 55.3146 8.99697 58.2916 6.01811C61.2687 3.03941 65.3067 1.36468 69.5181 1.36221H63.5635C59.3506 1.36221 55.3102 3.03586 52.331 6.01487C49.352 8.99388 47.6783 13.0344 47.6783 17.2474V183.964C47.6783 188.178 49.352 192.219 52.331 195.197C55.3102 198.176 59.3506 199.85 63.5635 199.85H69.5212C65.3097 199.848 61.271 198.175 58.2933 195.195C55.3156 192.217 53.6427 188.178 53.6422 183.966Z" fill="#1C83FF"/>
<path d="M53.6422 183.966V17.2474C53.6422 13.036 55.3146 8.99697 58.2916 6.01811C61.2687 3.03941 65.3067 1.36468 69.5181 1.36221H63.5635C59.3506 1.36221 55.3102 3.03586 52.331 6.01487C49.352 8.99388 47.6783 13.0344 47.6783 17.2474V183.964C47.6783 188.178 49.352 192.219 52.331 195.197C55.3102 198.176 59.3506 199.85 63.5635 199.85H69.5212C65.3097 199.848 61.271 198.175 58.2933 195.195C55.3156 192.217 53.6427 188.178 53.6422 183.966Z" stroke="#181A1C" stroke-width="1.55" stroke-linecap="round" stroke-linejoin="round"/>
<path d="M69.5221 1.36847H173.225C177.435 1.36847 181.473 3.04089 184.449 6.01789C187.427 8.99505 189.099 13.0327 189.099 17.2429V183.96C189.099 188.173 187.426 192.214 184.446 195.192C181.468 198.172 177.427 199.845 173.214 199.845H69.5221C65.309 199.845 61.2686 198.172 58.2896 195.192C55.3105 192.214 53.637 188.173 53.637 183.96V17.2475C53.637 13.0345 55.3105 8.99397 58.2896 6.01496C61.2686 3.03595 65.309 1.36847 69.5221 1.36847Z" fill="white" fill-opacity="0.6" stroke="#181A1C" stroke-width="1.55" stroke-linecap="round" stroke-linejoin="round"/>
<path d="M189.097 21.0092H53.6414V180.206H189.097V21.0092Z" stroke="#181A1C" stroke-width="1.55" stroke-linecap="round" stroke-linejoin="round"/>
<path d="M121.37 185.471C120.469 185.471 119.588 185.738 118.839 186.239C118.09 186.739 117.507 187.45 117.162 188.283C116.817 189.116 116.727 190.03 116.903 190.914C117.079 191.798 117.512 192.609 118.149 193.246C118.786 193.883 119.598 194.316 120.481 194.492C121.365 194.668 122.28 194.578 123.112 194.233C123.945 193.889 124.656 193.304 125.156 192.556C125.657 191.807 125.924 190.926 125.924 190.026C125.924 189.427 125.806 188.835 125.577 188.283C125.348 187.731 125.013 187.228 124.59 186.805C124.167 186.383 123.665 186.047 123.112 185.818C122.56 185.588 121.968 185.471 121.37 185.471Z" stroke="#181A1C" stroke-width="1.55" stroke-linecap="round" stroke-linejoin="round"/>
<path d="M112.857 11.1893H132.516" stroke="#181A1C" stroke-width="1.55" stroke-linecap="round" stroke-linejoin="round"/>
<path d="M125.661 165.247H162.525" stroke="#181A1C" stroke-width="1.55" stroke-linecap="round" stroke-linejoin="round"/>
<path d="M125.661 170.774H162.525" stroke="#181A1C" stroke-width="1.55" stroke-linecap="round" stroke-linejoin="round"/>
<path d="M79.951 165.247H116.817" stroke="#181A1C" stroke-width="1.55" stroke-linecap="round" stroke-linejoin="round"/>
<path d="M79.951 170.774H116.817" stroke="#181A1C" stroke-width="1.55" stroke-linecap="round" stroke-linejoin="round"/>
<path d="M125.661 30.4264H162.525" stroke="#181A1C" stroke-width="1.55" stroke-linecap="round" stroke-linejoin="round"/>
<path d="M125.661 35.9536H162.525" stroke="#181A1C" stroke-width="1.55" stroke-linecap="round" stroke-linejoin="round"/>
<path d="M81.5214 44.2339H162.525" stroke="#181A1C" stroke-width="1.55" stroke-linecap="round" stroke-linejoin="round"/>
<path d="M81.5214 49.7612H162.525" stroke="#181A1C" stroke-width="1.55" stroke-linecap="round" stroke-linejoin="round"/>
<path d="M78.9277 21.0092C78.9647 24.3854 80.332 27.6107 82.7323 29.985C85.1328 32.3593 88.3729 33.6909 91.7492 33.6909C95.1255 33.6909 98.3656 32.3593 100.766 29.985C103.167 27.6107 104.534 24.3854 104.571 21.0092H78.9277Z" fill="#1C83FF"/>
<path d="M78.9277 21.0092C78.9647 24.3854 80.332 27.6107 82.7323 29.985C85.1328 32.3593 88.3729 33.6909 91.7492 33.6909C95.1255 33.6909 98.3656 32.3593 100.766 29.985C103.167 27.6107 104.534 24.3854 104.571 21.0092H78.9277Z" stroke="#181A1C" stroke-width="1.55" stroke-linecap="round" stroke-linejoin="round"/>
<path d="M53.6414 155.725H189.097" stroke="#181A1C" stroke-width="1.55" stroke-linecap="round" stroke-linejoin="round"/>
<path d="M93.3962 108.697H77.0175L94.6917 84.1381L86.9974 78.6014L58.5151 118.177H93.3962V141.363H102.875V100.511H93.3962V108.697Z" fill="#1C83FF"/>
<path d="M173.396 100.511V108.697H157.017L174.691 84.1381L166.997 78.6014L138.516 118.177H173.396V141.363H182.876V100.511H173.396Z" fill="#1C83FF"/>
<path d="M135.971 90.1638C135.968 87.5955 134.946 85.1333 133.13 83.3173C131.314 81.5013 128.852 80.4797 126.284 80.4769H118.787C116.219 80.4802 113.757 81.5017 111.941 83.3177C110.125 85.1336 109.103 87.5956 109.1 90.1638V131.676C109.103 134.244 110.125 136.707 111.941 138.522C113.757 140.339 116.219 141.36 118.787 141.363H126.286C128.854 141.36 131.316 140.339 133.132 138.522C134.948 136.707 135.969 134.244 135.972 131.676L135.971 90.1638ZM126.492 131.883H118.58V89.9571H126.494L126.492 131.883Z" fill="#1C83FF"/>
<path d="M53.6414 61.012L76.2184 71.2418L98.7938 61.012H53.6414Z" fill="#CCE7FF"/>
<path d="M53.6414 61.012L76.2184 71.2418L98.7938 61.012H53.6414Z" stroke="#181A1C" stroke-width="1.55" stroke-linecap="round" stroke-linejoin="round"/>
<path d="M98.7947 61.012L121.37 71.2418L143.946 61.012H98.7947Z" fill="#CCE7FF"/>
<path d="M98.7947 61.012L121.37 71.2418L143.946 61.012H98.7947Z" stroke="#181A1C" stroke-width="1.55" stroke-linecap="round" stroke-linejoin="round"/>
<path d="M143.944 61.012L166.522 71.2418L189.097 61.012H143.944Z" fill="#CCE7FF"/>
<path d="M143.944 61.012L166.522 71.2418L189.097 61.012H143.944Z" stroke="#181A1C" stroke-width="1.55" stroke-linecap="round" stroke-linejoin="round"/>
<path d="M238.15 108.324L230.689 125.597L212.799 124.175L205.197 140.433L187.307 139.013L179.133 154.992L161.301 152.941C168.13 164.119 177.244 173.729 188.044 181.141C198.846 188.551 211.091 193.598 223.978 195.947L294.513 146.65C272.488 141.883 249.709 127.66 238.15 108.324Z" fill="#CCE7FF"/>
<path d="M238.15 108.324L230.689 125.597L212.799 124.175L205.197 140.433L187.307 139.013L179.133 154.992L161.301 152.941C168.13 164.119 177.244 173.729 188.044 181.141C198.846 188.551 211.091 193.598 223.978 195.947L294.513 146.65C272.488 141.883 249.709 127.66 238.15 108.324Z" stroke="#181A1C" stroke-width="1.55" stroke-linecap="round" stroke-linejoin="round"/>
<path d="M204.137 155.857L256.8 154.102" stroke="#181A1C" stroke-width="1.55" stroke-linecap="round" stroke-linejoin="round"/>
<path d="M233.628 135.142L227.907 173.935" stroke="#181A1C" stroke-width="1.55" stroke-linecap="round" stroke-linejoin="round"/>
<path d="M227.38 56.9867H242.827" stroke="#181A1C" stroke-width="1.55" stroke-linecap="round" stroke-linejoin="round"/>
<path d="M235.102 64.7117V49.263" stroke="#181A1C" stroke-width="1.55" stroke-linecap="round" stroke-linejoin="round"/>
<path d="M18.8506 136.383L29.7743 147.306" stroke="#181A1C" stroke-width="1.55" stroke-linecap="round" stroke-linejoin="round"/>
<path d="M18.8506 147.306L29.7743 136.383" stroke="#181A1C" stroke-width="1.55" stroke-linecap="round" stroke-linejoin="round"/>
<path d="M249.121 197.06L254.693 202.632" stroke="#181A1C" stroke-width="1.55" stroke-linecap="round" stroke-linejoin="round"/>
<path d="M249.121 202.632L254.693 197.06" stroke="#181A1C" stroke-width="1.55" stroke-linecap="round" stroke-linejoin="round"/>
<path d="M1.48596 190.792L6.26231 198.668L11.8792 186.901" stroke="#181A1C" stroke-width="1.55" stroke-linecap="round" stroke-linejoin="round"/>
<path d="M251.905 17.5138H260.332" stroke="#181A1C" stroke-width="1.55" stroke-linecap="round" stroke-linejoin="round"/>
<path d="M256.118 21.7276V13.3008" stroke="#181A1C" stroke-width="1.55" stroke-linecap="round" stroke-linejoin="round"/>
</svg>
