<svg width="266" height="247" viewBox="0 0 266 247" fill="none" xmlns="http://www.w3.org/2000/svg">
<g clip-path="url(#clip0_1472_4611)">
<path d="M125.811 14.5469C118.531 15.2334 116.627 17.1374 115.941 24.4166C115.889 24.9088 115.177 24.9088 115.138 24.4166C114.451 17.1374 112.547 15.2334 105.268 14.5469C104.776 14.4951 104.776 13.7827 105.268 13.7439C112.547 13.0574 114.451 11.1534 115.138 3.87415C115.19 3.38196 115.902 3.38196 115.941 3.87415C116.627 11.1534 118.531 13.0574 125.811 13.7439C126.303 13.7957 126.303 14.508 125.811 14.5469Z" fill="#91FAA1" stroke="#0085FF" stroke-width="1.14999" stroke-miterlimit="10"/>
<path d="M28.1993 166.996C20.9201 167.683 19.0161 169.587 18.3296 176.866C18.2778 177.358 17.5654 177.358 17.5266 176.866C16.8401 169.587 14.9361 167.683 7.65686 166.996C7.16467 166.945 7.16467 166.232 7.65686 166.193C14.9361 165.507 16.8401 163.603 17.5266 156.324C17.5784 155.831 18.2908 155.831 18.3296 156.324C19.0161 163.603 20.9201 165.507 28.1993 166.193C28.6915 166.245 28.6915 166.958 28.1993 166.996Z" fill="#91FAA1" stroke="#0085FF" stroke-width="1.14999" stroke-miterlimit="10"/>
<path d="M250.14 107.441C242.861 108.128 240.957 110.032 240.27 117.311C240.218 117.803 239.506 117.803 239.467 117.311C238.781 110.032 236.877 108.128 229.598 107.441C229.105 107.389 229.105 106.677 229.598 106.638C236.877 105.952 238.781 104.048 239.467 96.7683C239.519 96.2761 240.231 96.2761 240.27 96.7683C240.957 104.048 242.861 105.952 250.14 106.638C250.632 106.69 250.632 107.402 250.14 107.441Z" fill="#91FAA1" stroke="#0085FF" stroke-width="1.14999" stroke-miterlimit="10"/>
<path d="M142.686 159.55L127.26 166.13L60.4516 194.664L51.9419 152.465L50.9186 147.31L47.823 131.987L46.2558 124.242L43.3415 109.774L40.2329 94.3218C39.0672 94.1405 37.9145 93.8944 36.7617 93.6094C36.3861 93.5317 36.0105 93.4281 35.6219 93.3245L34.521 93.0006C34.1065 92.8711 33.679 92.7416 33.2646 92.5991C32.4874 92.3401 31.7103 92.0551 30.9461 91.7572C30.1819 91.4464 29.4307 91.1226 28.6794 90.7858C28.3038 90.6174 27.9282 90.4361 27.5655 90.2548C27.1899 90.0734 26.8143 89.8791 26.4516 89.6978C26.089 89.5035 25.7392 89.2963 25.3766 89.102C25.0139 88.9077 24.6642 88.6875 24.3145 88.4673C23.9777 88.286 23.6539 88.0788 23.3172 87.8715C22.9545 87.6384 22.5789 87.3923 22.2162 87.1462C21.8794 86.913 21.5427 86.6669 21.2059 86.4338C19.82 85.4494 18.4989 84.3614 17.2295 83.2087C16.9575 82.9626 16.6855 82.7035 16.4135 82.4445C16.1934 82.2372 15.9602 82.017 15.74 81.7969C15.5069 81.5508 15.2608 81.3047 15.0276 81.0586C14.3153 80.3203 13.6417 79.569 12.9812 78.766C12.6962 78.4292 12.4242 78.0925 12.1522 77.7428C11.8025 77.2894 11.4528 76.8361 11.129 76.3698C10.9088 76.059 10.6756 75.7481 10.4684 75.4372C10.2223 75.0875 9.98917 74.7378 9.78193 74.3751C9.54879 74.0513 9.34155 73.7146 9.14727 73.3649C9.01774 73.1706 8.90117 72.9763 8.7846 72.7691C8.57736 72.4323 8.39603 72.0826 8.20174 71.7329C8.00746 71.3831 7.82612 71.0334 7.64479 70.6837C7.58003 70.5672 7.51527 70.4506 7.45051 70.3211C7.25622 69.9195 7.06193 69.518 6.86765 69.1165C6.66041 68.6632 6.45317 68.2098 6.25889 67.7565C4.65279 63.9873 3.60365 60.1275 3.07261 56.2548C2.76175 54.0011 2.63223 51.7474 2.65813 49.5066C2.67108 49.1828 2.68404 48.859 2.69699 48.5481C2.72289 47.9005 2.7488 47.2658 2.80061 46.6312C2.90423 45.3618 3.07261 44.1055 3.26689 42.8491C3.69432 40.3363 4.32899 37.8754 5.15794 35.5051C5.37813 34.8963 5.58537 34.3005 5.83146 33.7177C9.0825 25.4929 14.7815 18.2396 22.4364 13.1104C24.716 11.5432 27.1899 10.2091 29.8322 9.08226C52.5247 -0.606111 78.8051 9.92416 88.5064 32.6426C94.7365 47.2529 92.5864 63.3397 84.2192 75.5409L93.3506 88.6616L97.2881 94.3218L101.718 100.681L113.103 117.04L142.686 159.55Z" fill="url(#paint0_linear_1472_4611)" stroke="#0085FF" stroke-width="1.14999" stroke-miterlimit="10"/>
<path d="M127.26 166.129L60.4516 194.663L51.9548 152.464L50.9186 147.309L47.823 131.986L46.2558 124.241L43.3415 109.773L40.2329 94.3206C39.0672 94.1393 37.9145 93.8932 36.7617 93.6083C36.3861 93.5306 36.0105 93.4269 35.6219 93.3233L34.521 92.9995C34.1065 92.87 33.679 92.7405 33.2646 92.598C32.4874 92.3389 31.7103 92.054 30.9461 91.7561C30.1819 91.4452 29.4307 91.1214 28.6794 90.7847C28.3038 90.6163 27.9282 90.4349 27.5655 90.2536C27.1899 90.0723 26.8143 89.878 26.4516 89.6967C26.089 89.5024 25.7393 89.2951 25.3766 89.1008C25.0139 88.9066 24.6642 88.6864 24.3145 88.4662C23.9777 88.2848 23.6539 88.0776 23.3172 87.8704C22.9545 87.6372 22.5789 87.3911 22.2162 87.145C21.8794 86.9119 21.5427 86.6658 21.2059 86.4327C19.82 85.4483 18.4989 84.3603 17.2295 83.2075C16.9575 82.9614 16.6855 82.7024 16.4135 82.4433C16.1934 82.2361 15.9602 82.0159 15.74 81.7957C15.5069 81.5496 15.2608 81.3035 15.0276 81.0574C14.3153 80.3191 13.6417 79.5679 12.9812 78.7649C12.6962 78.4281 12.4242 78.0913 12.1522 77.7416C11.8025 77.2883 11.4528 76.835 11.129 76.3687C10.9088 76.0578 10.6756 75.747 10.4684 75.4361C10.2223 75.0864 9.98917 74.7367 9.78193 74.374C9.54879 74.0502 9.34155 73.7134 9.14727 73.3637C9.01774 73.1694 8.90117 72.9752 8.7846 72.7679C8.57736 72.4311 8.39603 72.0814 8.20174 71.7317C8.00746 71.382 7.82613 71.0323 7.64479 70.6826C7.58003 70.566 7.51527 70.4494 7.45051 70.3199C7.25622 69.9184 7.06194 69.5169 6.86765 69.1153C6.66041 68.662 6.45317 68.2087 6.25889 67.7553C4.6528 63.9862 3.60365 60.1264 3.07261 56.2536C2.76175 53.9999 2.63223 51.7462 2.65813 49.5055C2.67108 49.1816 2.68404 48.8578 2.69699 48.547C2.72289 47.8994 2.7488 47.2647 2.80061 46.63C2.90423 45.3607 3.07261 44.1043 3.26689 42.8479C3.69432 40.3352 4.32899 37.8742 5.15794 35.5039C5.37813 34.8952 5.58537 34.2994 5.83146 33.7165C9.0825 25.4918 14.7815 18.2384 22.4364 13.1093C43.0048 8.60188 64.5057 19.1451 73.0801 39.2213C79.3102 53.8316 77.1601 69.9313 68.7929 82.1325L76.8104 93.6471L79.2325 97.1184L83.6881 103.517L88.1179 109.889L100.332 127.44L102.845 131.054L127.26 166.129Z" fill="url(#paint1_linear_1472_4611)" stroke="#0085FF" stroke-width="1.14999" stroke-miterlimit="10"/>
<path d="M243.027 162.853L242.691 169.666L239.854 226.138L204.934 224.389L207.395 175.157L207.68 169.458L204.792 166.881L166.984 133.127L190.272 107.041L235.619 147.517L237.199 148.929C241.149 152.452 243.286 157.568 243.027 162.853Z" fill="#CCE7FF" stroke="#0085FF" stroke-width="1.14999" stroke-linejoin="round"/>
<path d="M243.029 162.853L242.692 169.666L207.397 175.157L207.682 169.458L204.794 166.881L235.62 147.517L237.2 148.929C241.151 152.452 243.288 157.568 243.029 162.853Z" fill="#0085FF" stroke="#0085FF" stroke-width="1.14999" stroke-linejoin="round"/>
<path d="M104.505 147.84L106.447 152.399C107.199 154.161 109.232 154.977 110.994 154.226L111.68 153.941L113.701 158.681C114.154 159.756 115.385 160.249 116.46 159.795C117.535 159.342 118.027 158.111 117.574 157.036L115.553 152.296L112.263 144.55" fill="white"/>
<path d="M104.505 147.84L106.447 152.399C107.199 154.161 109.232 154.977 110.994 154.226L111.68 153.941L113.701 158.681C114.154 159.756 115.385 160.249 116.46 159.795C117.535 159.342 118.027 158.111 117.574 157.036L115.553 152.296L112.263 144.55" stroke="#0085FF" stroke-width="1.14999" stroke-linejoin="round"/>
<path d="M257.405 29.7269L245.761 55.813C236.319 58.0408 228.884 65.4625 226.618 74.8918L199.845 88.4012L191.089 71.0579L225.413 53.7277L239.661 21.813L257.405 29.7269Z" fill="#CCE7FF" stroke="#0085FF" stroke-width="1.14999" stroke-linejoin="round"/>
<path d="M258.209 3.80803C263.138 5.98498 265.368 11.7414 263.191 16.6702L256.456 31.9188L238.612 24.0378L245.347 8.78919C247.524 3.86036 253.281 1.63107 258.209 3.80803Z" fill="white" stroke="#0085FF" stroke-width="1.14999" stroke-linejoin="round"/>
<path d="M100.961 168.638C95.6605 167.673 92.1481 162.597 93.1134 157.296L96.0997 140.896L115.29 144.39L112.304 160.79C111.339 166.091 106.262 169.604 100.961 168.638Z" fill="white" stroke="#0085FF" stroke-width="1.14999" stroke-linejoin="round"/>
<path d="M170.871 80.3704C170.871 82.5205 169.136 84.2561 166.986 84.2561C134.708 84.2561 116.692 91.4447 101.719 100.68C97.0041 103.607 92.5874 106.728 88.1188 109.889C88.0152 109.967 87.9115 110.031 87.8079 110.109C76.4616 118.152 64.8952 126.351 47.8239 131.986L46.2567 124.24C61.9679 118.891 72.7443 111.262 83.3134 103.775C83.443 103.685 83.5595 103.594 83.6891 103.516C88.0799 100.395 92.5096 97.2732 97.2891 94.3201C113.013 84.5411 132.584 76.4847 166.986 76.4847C169.136 76.4847 170.871 78.2203 170.871 80.3704Z" fill="url(#paint2_linear_1472_4611)" stroke="#1C83FF" stroke-width="1.14999" stroke-linecap="round" stroke-linejoin="round"/>
<path d="M248.274 21.9827V17.0349C248.274 15.118 246.72 13.5766 244.816 13.5766H244.078V8.43456C244.078 7.26884 243.132 6.33627 241.98 6.33627C240.827 6.33627 239.881 7.2818 239.881 8.43456V21.9957" fill="white"/>
<path d="M248.274 21.9827V17.0349C248.274 15.118 246.72 13.5766 244.816 13.5766H244.078V8.43456C244.078 7.26884 243.132 6.33627 241.98 6.33627C240.827 6.33627 239.881 7.2818 239.881 8.43456V21.9957" stroke="#0085FF" stroke-width="1.14999" stroke-linejoin="round"/>
<path d="M143.397 175.908L171.996 197.189L128.904 236.189L105.434 210.258L143.397 175.908Z" fill="#CCE7FF" stroke="#0085FF" stroke-width="1.14999" stroke-linejoin="round"/>
<path d="M145.962 168.798L143.138 118.892L178.058 116.911L181.464 177.23L145.962 168.798Z" fill="#CCE7FF" stroke="#0085FF" stroke-width="1.14999" stroke-linejoin="round"/>
<path d="M241.655 218.405L240.231 218.327L240.619 210.75L205.725 208.937L205.337 216.514L204.547 231.668L249.958 234.025L250.269 227.964C250.528 222.938 246.668 218.664 241.642 218.405H241.655Z" fill="url(#paint3_linear_1472_4611)" stroke="#1C83FF" stroke-width="1.14999" stroke-linecap="round" stroke-linejoin="round"/>
<path d="M136.223 229.557L141.87 224.492L118.556 198.471L112.909 203.535L101.614 213.664L131.962 247.521L136.482 243.467C140.225 240.113 140.549 234.349 137.182 230.606L136.236 229.544L136.223 229.557Z" fill="url(#paint4_linear_1472_4611)" stroke="#1C83FF" stroke-width="1.14999" stroke-linecap="round" stroke-linejoin="round"/>
<path d="M175.883 193.678L171.998 197.188L143.399 175.908L146.222 173.356L145.963 168.797L181.466 177.229L181.608 179.729C181.906 185 179.808 190.129 175.883 193.678Z" fill="#0085FF" stroke="#0085FF" stroke-width="1.14999" stroke-linejoin="round"/>
<path d="M204.287 86.161C204.092 86.161 203.898 86.148 203.704 86.1092C201.942 85.7854 200.777 84.1016 201.1 82.34C201.45 80.436 201.036 78.5191 199.935 76.9259C198.834 75.3328 197.176 74.2707 195.285 73.921L194.767 73.8303C193.005 73.5065 191.839 71.8227 192.163 70.0612C192.487 68.2997 194.171 67.1469 195.932 67.4578L196.45 67.5484C200.051 68.209 203.186 70.2296 205.271 73.2345C207.356 76.2524 208.146 79.892 207.486 83.4928C207.201 85.06 205.841 86.148 204.3 86.148L204.287 86.161Z" fill="white" stroke="#0085FF" stroke-width="1.14999" stroke-linejoin="round"/>
<path d="M202.098 119.151C182.553 126.547 162.917 126.482 143.203 119.151V70.6442H191.632C197.422 70.6442 202.111 75.3329 202.111 81.1226V119.151H202.098Z" fill="#CCE7FF" stroke="#0085FF" stroke-width="1.14999" stroke-linejoin="round"/>
<path d="M185.687 84.9951H160.184V110.498H185.687V84.9951Z" fill="#013E53" stroke="#1C83FF" stroke-width="1.14999" stroke-linecap="round" stroke-linejoin="round"/>
<path d="M190.455 84.9951H164.952V110.498H190.455V84.9951Z" fill="url(#paint5_linear_1472_4611)" stroke="#1C83FF" stroke-width="1.14999" stroke-linecap="round" stroke-linejoin="round"/>
<path d="M172.775 127.893C162.555 127.893 152.297 125.989 142.065 122.194C140.394 121.573 139.539 119.708 140.161 118.037C140.783 116.366 142.648 115.511 144.319 116.133C163.281 123.179 182.334 123.179 200.946 116.133C202.617 115.498 204.482 116.34 205.117 118.024C205.752 119.695 204.91 121.56 203.239 122.194C193.175 126.002 182.994 127.906 172.775 127.906V127.893Z" fill="white" stroke="#0085FF" stroke-width="1.14999" stroke-linejoin="round"/>
<path d="M245.761 55.8137L241.746 64.8026C240.839 66.8361 239.259 68.507 237.264 69.5173L226.617 74.8925C228.884 65.4632 236.319 58.0415 245.761 55.8137Z" fill="#0085FF" stroke="#0085FF" stroke-width="1.14999" stroke-linejoin="round"/>
<path d="M115.525 92.559C114.981 102.234 109.101 110.472 100.798 114.41L102.301 106.068C102.728 103.724 103.998 101.626 105.863 100.149L115.525 92.559Z" fill="#0085FF" stroke="#0085FF" stroke-width="1.14999" stroke-linejoin="round"/>
<path d="M172.154 78.4671C166.002 78.4671 159.927 76.887 154.591 73.9079C152.091 72.5091 151.197 69.3616 152.596 66.8618C153.995 64.362 157.142 63.4683 159.642 64.8672C163.437 66.9914 167.776 68.1053 172.154 68.1053C177.309 68.1053 182.283 66.5898 186.531 63.7144C188.901 62.1083 192.127 62.73 193.72 65.1133C195.326 67.4835 194.704 70.7087 192.321 72.3018C186.35 76.33 179.368 78.4671 172.141 78.4671H172.154Z" fill="white" stroke="#0085FF" stroke-width="1.14999" stroke-linejoin="round"/>
<path d="M172.153 72.0042C189.221 72.0042 203.057 58.1679 203.057 41.0999C203.057 24.0319 189.221 10.1955 172.153 10.1955C155.085 10.1955 141.248 24.0319 141.248 41.0999C141.248 58.1679 155.085 72.0042 172.153 72.0042Z" fill="url(#paint6_linear_1472_4611)" stroke="#1C83FF" stroke-width="1.14999" stroke-linecap="round" stroke-linejoin="round"/>
<path d="M149.914 32.6287C152.297 26.3727 157.245 21.386 163.462 18.938" stroke="white" stroke-width="3.44996" stroke-linecap="round" stroke-linejoin="round"/>
<path d="M143.657 95.163L120.77 113.141L114.411 148.643L95.2799 145.211L100.798 114.41C109.1 110.473 114.98 102.235 115.524 92.5596L143.398 70.6442L146.183 74.1802C151.273 80.6693 150.146 90.0598 143.67 95.1501L143.657 95.163Z" fill="#CCE7FF" stroke="#0085FF" stroke-width="1.14999" stroke-linejoin="round"/>
<path d="M143.671 98.4018C142.712 98.4018 141.767 97.9744 141.119 97.1584C140.018 95.7466 140.264 93.7131 141.663 92.6121C146.741 88.6228 147.621 81.2529 143.632 76.1885L140.847 72.6525C139.746 71.2407 139.992 69.2072 141.391 68.1062C142.79 67.0053 144.837 67.2514 145.937 68.6502L148.722 72.1862C154.913 80.0613 153.54 91.5112 145.653 97.7154C145.057 98.1816 144.357 98.4018 143.658 98.4018H143.671Z" fill="white" stroke="#0085FF" stroke-width="1.14999" stroke-linejoin="round"/>
<path d="M174.497 92.559H170.534V96.5224H174.497V92.559Z" fill="#013E53" stroke="#1C83FF" stroke-width="1.14999" stroke-linecap="round" stroke-linejoin="round"/>
<path d="M174.497 96.5236H170.534V100.487H174.497V96.5236Z" fill="#013E53" stroke="#1C83FF" stroke-width="1.14999" stroke-linecap="round" stroke-linejoin="round"/>
<path d="M174.497 100.486H170.534V104.45H174.497V100.486Z" fill="#013E53" stroke="#1C83FF" stroke-width="1.14999" stroke-linecap="round" stroke-linejoin="round"/>
<path d="M176.894 92.559H172.931V96.5224H176.894V92.559Z" fill="white" stroke="#0085FF" stroke-width="1.14999" stroke-linejoin="round"/>
<path d="M176.894 96.5236H172.931V100.487H176.894V96.5236Z" fill="#8100F3" stroke="#0085FF" stroke-width="1.14999" stroke-linejoin="round"/>
<path d="M176.894 100.486H172.931V104.45H176.894V100.486Z" fill="white" stroke="#0085FF" stroke-width="1.14999" stroke-linejoin="round"/>
<path d="M180.857 92.559H176.894V96.5224H180.857V92.559Z" fill="#FF3EB3" stroke="#0085FF" stroke-width="1.14999" stroke-linejoin="round"/>
<path d="M180.857 96.5236H176.894V100.487H180.857V96.5236Z" fill="white" stroke="#0085FF" stroke-width="1.14999" stroke-linejoin="round"/>
<path d="M180.857 100.486H176.894V104.45H180.857V100.486Z" fill="white" stroke="#0085FF" stroke-width="1.14999" stroke-linejoin="round"/>
<path d="M184.82 92.559H180.857V96.5224H184.82V92.559Z" fill="white" stroke="#0085FF" stroke-width="1.14999" stroke-linejoin="round"/>
<path d="M184.82 96.5236H180.857V100.487H184.82V96.5236Z" fill="white" stroke="#0085FF" stroke-width="1.14999" stroke-linejoin="round"/>
<path d="M184.82 100.486H180.857V104.45H184.82V100.486Z" fill="#10E7E6" stroke="#0085FF" stroke-width="1.14999" stroke-linejoin="round"/>
</g>
<defs>
<linearGradient id="paint0_linear_1472_4611" x1="-25.7982" y1="-41.0823" x2="123.128" y2="187.799" gradientUnits="userSpaceOnUse">
<stop stop-color="#9B2076"/>
<stop offset="0.48" stop-color="#5E09A7"/>
<stop offset="1" stop-color="#013E53"/>
</linearGradient>
<linearGradient id="paint1_linear_1472_4611" x1="217.771" y1="279.099" x2="-60.394" y2="-23.1055" gradientUnits="userSpaceOnUse">
<stop stop-color="#FF78BF"/>
<stop offset="0.48" stop-color="#A860F2"/>
<stop offset="1" stop-color="#10E7E6"/>
</linearGradient>
<linearGradient id="paint2_linear_1472_4611" x1="34.5607" y1="137.607" x2="108.195" y2="101.068" gradientUnits="userSpaceOnUse">
<stop stop-color="#A4CDFF"/>
<stop offset="1" stop-color="#E8F3FF"/>
</linearGradient>
<linearGradient id="paint3_linear_1472_4611" x1="204.56" y1="221.487" x2="250.282" y2="221.487" gradientUnits="userSpaceOnUse">
<stop stop-color="#81EE92"/>
<stop offset="1" stop-color="#60A8FF"/>
</linearGradient>
<linearGradient id="paint4_linear_1472_4611" x1="101.601" y1="223.003" x2="141.87" y2="223.003" gradientUnits="userSpaceOnUse">
<stop stop-color="#81EE92"/>
<stop offset="1" stop-color="#60A8FF"/>
</linearGradient>
<linearGradient id="paint5_linear_1472_4611" x1="164.952" y1="97.7532" x2="190.468" y2="97.7532" gradientUnits="userSpaceOnUse">
<stop stop-color="#81EE92"/>
<stop offset="1" stop-color="#60A8FF"/>
</linearGradient>
<linearGradient id="paint6_linear_1472_4611" x1="141.261" y1="41.0999" x2="203.057" y2="41.0999" gradientUnits="userSpaceOnUse">
<stop stop-color="#81EE92"/>
<stop offset="1" stop-color="#60A8FF"/>
</linearGradient>
<clipPath id="clip0_1472_4611">
<rect width="266" height="245.967" fill="white" transform="translate(0 0.551575)"/>
</clipPath>
</defs>
</svg>
