<svg id="a" data-name="Layer 1" xmlns="http://www.w3.org/2000/svg" width="40" height="40" xmlns:xlink="http://www.w3.org/1999/xlink" viewBox="0 0 40 40">
  <defs>
    <linearGradient id="b" data-name="New Gradient Swatch 2" x1="11.507" y1="33.741" x2="33.185" y2="12.175" gradientUnits="userSpaceOnUse">
      <stop offset="0" stop-color="#0083b9"/>
      <stop offset=".496" stop-color="aqua"/>
      <stop offset=".995" stop-color="#00f500"/>
    </linearGradient>
    <linearGradient id="c" data-name="New Gradient Swatch 2" x1="6.215" y1="28.422" x2="27.893" y2="6.855" xlink:href="#b"/>
    <linearGradient id="d" data-name="New Gradient Swatch 2" x1="6.892" y1="29.102" x2="28.569" y2="7.535" xlink:href="#b"/>
    <linearGradient id="e" data-name="New Gradient Swatch 2" x1="9.245" y1="31.467" x2="30.922" y2="9.901" xlink:href="#b"/>
  </defs>
  <circle cx="20" cy="20" r="20" fill="#121217"/>
  <g>
    <path d="M24.225,28.732c.99-.21,1.824-.626,2.494-1.259,1.004-.947,1.146-2.222,1.146-3.824v-7.145c0-1.602-.142-2.877-1.146-3.824-.671-.633-1.505-1.05-2.494-1.259v-3.421c1.633,.235,2.981,.848,4.039,1.847,1.384,1.305,2.595,3.063,2.595,5.272v9.763c0,2.209-1.211,3.966-2.595,5.272-1.058,.998-2.406,1.612-4.039,1.847v-3.268Z" fill="url(#b)"/>
    <path d="M11.736,9.847c1.058-.998,2.407-1.612,4.039-1.847v3.421c-.989,.21-1.823,.626-2.494,1.259-1.003,.947-1.147,2.214-1.147,3.8v7.169c0,1.602,.144,2.877,1.147,3.824,.671,.633,1.505,1.049,2.494,1.259v3.268c-1.632-.235-2.98-.848-4.039-1.847-1.383-1.305-2.594-3.063-2.594-5.272V15.085c0-2.187,1.211-3.933,2.594-5.238Z" fill="url(#c)"/>
    <g>
      <path d="M22.976,17.424l1.112-1.783-2.32-1.224-.978,1.853c-.142,.269-.409,.43-.713,.43s-.571-.16-.713-.43l-.978-1.853-2.298,1.213,1.598,2.561,5.29-.766Z" fill="url(#d)"/>
      <path d="M25.863,18.712l-11.424,.099v2.307l3.58-.012-1.931,3.095,2.298,1.213,.978-1.853c.142-.269,.409-.43,.713-.43s.571,.161,.713,.43l.978,1.853,2.32-1.224-1.565-2.508-3-.58,6.339-.021v-2.367Z" fill="url(#e)"/>
    </g>
  </g>
</svg>